<svg width="66" height="66" xmlns="http://www.w3.org/2000/svg">
    <g fill="none" fill-rule="evenodd">
        <rect fill="#002F5F" width="66" height="66" rx="5"/>
        <path d="M31.84 31.49c.46.04.95.04 1.47 0s1-.15 1.45-.34a2.8 2.8 0 0 0 1.12-.83c.29-.36.43-.84.43-1.44 0-.9-.3-1.59-.9-2.07a3.22 3.22 0 0 0-2.07-.72c-1.08 0-1.9.35-2.45 1.07-.55.7-.81 1.6-.79 2.68h-4.05c.04-1.08.23-2.06.59-2.95a6.51 6.51 0 0 1 3.73-3.78 8.8 8.8 0 0 1 5.46-.15c.84.25 1.6.62 2.26 1.12.68.5 1.22 1.11 1.64 1.83.42.72.63 1.55.63 2.49 0 1.02-.24 1.92-.73 2.7a3.69 3.69 0 0 1-2.21 1.59v.06c1.16.26 2.07.82 2.73 1.68.66.86.99 1.89.99 3.09a6.49 6.49 0 0 1-2.37 5.1 7.62 7.62 0 0 1-2.49 1.32c-.94.3-1.92.45-2.94.45a9.7 9.7 0 0 1-3.23-.51 6.58 6.58 0 0 1-4.05-3.87 8.42 8.42 0 0 1-.52-3.24h4.05c.02.56.11 1.1.27 1.6.16.52.39.95.69 1.33a3.28 3.28 0 0 0 2.73 1.21c.96 0 1.77-.3 2.43-.88.66-.6.99-1.4.99-2.42 0-.8-.15-1.41-.47-1.83-.3-.42-.7-.72-1.18-.91-.48-.2-1-.3-1.57-.34-.58-.03-1.12-.04-1.64-.04v-3z"
              fill="#FFF"/>
    </g>
</svg>