<svg width="66" height="66" xmlns="http://www.w3.org/2000/svg">
    <g fill="none" fill-rule="evenodd">
        <rect fill="#002F5F" width="66" height="66" rx="5"/>
        <path d="M26.11 31.07c-.04-1.2.1-2.31.42-3.34.32-1.04.8-1.93 1.44-2.7a6.52 6.52 0 0 1 2.42-1.8 8.18 8.18 0 0 1 3.34-.65c.96 0 1.87.15 2.75.45.87.3 1.63.73 2.29 1.29a6.13 6.13 0 0 1 2.16 4.83 6.65 6.65 0 0 1-1.86 4.76c-.56.59-1.2 1.12-1.9 1.6l-2.15 1.43c-.72.47-1.42.97-2.1 1.51a9.5 9.5 0 0 0-1.8 1.89h9.93V44H25.63c0-1.22.17-2.28.53-3.18.35-.9.82-1.7 1.42-2.41.6-.72 1.3-1.37 2.12-1.97a91.92 91.92 0 0 1 4.03-2.8c.52-.34 1-.7 1.43-1.1.43-.4.78-.85 1.08-1.35.29-.5.43-1.07.43-1.71 0-1.02-.3-1.81-.89-2.39a3.13 3.13 0 0 0-2.26-.85c-.62 0-1.14.14-1.58.44-.43.29-.77.66-1.03 1.14-.26.47-.44.98-.55 1.55a8.93 8.93 0 0 0-.17 1.7h-4.08z"
              fill="#FFF"/>
    </g>
</svg>