<?xml version="1.0" encoding="UTF-8"?>
<svg width="38px" height="168px" viewBox="0 0 38 168" version="1.1" xmlns="http://www.w3.org/2000/svg" xmlns:xlink="http://www.w3.org/1999/xlink">
    <!-- Generator: Sketch 48.1 (47250) - http://www.bohemiancoding.com/sketch -->
    <title>chat-btn</title>
    <desc>Created with Sketch.</desc>
    <defs>
        <rect id="path-1" x="-5.68434189e-14" y="0" width="31" height="14" rx="1"></rect>
    </defs>
    <g id="chat-beta-branding" stroke="none" stroke-width="1" fill="none" fill-rule="evenodd" transform="translate(-1300.000000, -404.000000)">
        <g id="chat-btn" transform="translate(1319.000000, 488.000000) rotate(-90.000000) translate(-1319.000000, -488.000000) translate(1235.000000, 469.000000)">
            <path d="M3,0 L165,0 C166.656854,-3.04359188e-16 168,1.34314575 168,3 L168,38 L0,38 L0,3 C-2.02906125e-16,1.34314575 1.34314575,3.04359188e-16 3,0 Z" id="Rectangle" fill="#1F8CEB"></path>
            <g id="Group-3" transform="translate(13.000000, 9.000000)">
                <g id="Group-2" transform="translate(111.000000, 0.000000)">
                    <g id="Rectangle-4">
                        <use fill="#FFFFFF" fill-rule="evenodd" xlink:href="#path-1"></use>
                        <rect stroke="#F2F9FF" stroke-width="1" x="0.5" y="0.5" width="30" height="13" rx="1"></rect>
                    </g>
                    <text id="BETA" font-family="Helvetica-Bold, Helvetica" font-size="9" font-weight="bold" fill="#1F8CEB">
                        <tspan x="3" y="10">BETA</tspan>
                    </text>
                </g>
                <text id="Chat-with-us" font-family="Helvetica-Bold, Helvetica" font-size="14" font-weight="bold" fill="#FFFFFF">
                    <tspan x="22.3896484" y="15">Chat with us</tspan>
                </text>
                <g id="Group" transform="translate(0.000000, 3.000000)">
                    <path d="M0.861672794,12.1530331 L0.827205882,12.1185662 L0.827205882,12.0496324 C0.275732537,11.2454004 0,10.3607585 0,9.39568015 C0,7.92508456 0.562953929,6.70726585 1.68887868,5.7421875 C1.59696645,6.24770473 1.55101103,6.63832583 1.55101103,6.9140625 C1.55101103,8.49954837 2.13694267,9.86097777 3.30882353,10.9983915 C4.48070439,12.1358053 5.89383364,12.7045037 7.54825368,12.7045037 C8.07674897,12.7045037 8.58225862,12.6355705 9.06479779,12.4977022 C8.03078527,13.7155392 6.70956687,14.3244485 5.10110294,14.3244485 C4.48069543,14.3244485 3.8143418,14.1865823 3.10202206,13.9108456 L3.06755515,13.9108456 C2.97564292,13.8648895 2.88373208,13.8419118 2.79181985,13.8419118 C2.72288568,13.8419118 2.61948598,13.8648895 2.48161765,13.9108456 L0.551470588,14.6691176 L0.965073529,12.4977022 C0.965073529,12.3828119 0.930606962,12.2679234 0.861672794,12.1530331 Z" id="ion-chatbubbles---Ionicons" fill="#FFFFFF"></path>
                    <path d="M8.34099265,0.330882353 C9.99541268,0.330882353 11.4085419,0.89958071 12.5804228,2.03699449 C13.7523037,3.17440826 14.3382353,4.53583766 14.3382353,6.12132353 C14.3382353,7.20129216 14.0165473,8.23528918 13.3731618,9.22334559 L13.3386949,9.2578125 C13.3157168,9.28079056 13.3042279,9.30376827 13.3042279,9.32674632 C13.2352938,9.46461466 13.2008272,9.60248093 13.2008272,9.74034926 L13.7867647,12.2909007 L11.4085478,11.394761 C11.2706795,11.3488049 11.1557909,11.3258272 11.0638787,11.3258272 C10.9949445,11.3258272 10.8915448,11.3488049 10.7536765,11.394761 L10.6847426,11.4292279 C10.5009182,11.4981621 10.2251857,11.5785841 9.85753676,11.6704963 C9.37499759,11.8083647 8.86948794,11.8772978 8.34099265,11.8772978 C6.68657261,11.8772978 5.27918779,11.3143439 4.11879596,10.1884191 C2.95840412,9.06249437 2.37821691,7.7068094 2.37821691,6.12132353 C2.37821691,5.70771852 2.41268348,5.30560857 2.48161765,4.91498162 C2.75735432,3.60523242 3.44668566,2.51379113 4.54963235,1.640625 C5.65257904,0.767458869 6.91635317,0.330882353 8.34099265,0.330882353 Z" id="Path" stroke="#FFFFFF" stroke-width="0.882352941"></path>
                    <g id="Group-4" transform="translate(5.294118, 5.294118)" fill="#FFFFFF">
                        <circle id="Oval" cx="0.772058824" cy="0.772058824" r="1"></circle>
                        <circle id="Oval" cx="3.08823529" cy="0.772058824" r="1"></circle>
                        <circle id="Oval-Copy" cx="5.40441176" cy="0.772058824" r="1"></circle>
                    </g>
                </g>
            </g>
        </g>
    </g>
</svg>