<?xml version="1.0" encoding="utf-8"?>
<!-- Generator: Adobe Illustrator 19.0.0, SVG Export Plug-In . SVG Version: 6.00 Build 0)  -->
<svg version="1.1" id="Layer_1" xmlns="http://www.w3.org/2000/svg" xmlns:xlink="http://www.w3.org/1999/xlink" x="0px" y="0px"
	 width="22.5px" height="16px" viewBox="0 0 22.5 16" enable-background="new 0 0 22.5 16" xml:space="preserve">
<g id="XMLID_3_">
	<path id="XMLID_103_" fill="none" d="M14.5,0c-4.4,0-8,3.6-8,8s3.6,8,8,8s8-3.6,8-8S18.9,0,14.5,0z M14.5,14.4
		c-3.5,0-6.4-2.9-6.4-6.4c0-3.5,2.9-6.4,6.4-6.4c3.5,0,6.4,2.9,6.4,6.4C20.9,11.5,18,14.4,14.5,14.4z"/>
	<path id="XMLID_104_" fill="none" d="M15.3,8.3V4.8c0-0.6-0.4-1-1-1s-1,0.4-1,1v4c0,0.3,0,0.7,0.3,0.8l2.2,1.5
		c0.2,0.1,0.4,0.2,0.5,0.2c0.3,0,0.7-0.2,0.9-0.5c0.3-0.5,0.2-1.1-0.2-1.4L15.3,8.3z"/>
	<path id="XMLID_105_" fill="none" d="M7.1,1.8H1c-0.6,0-1,0.4-1,1s0.4,1,1,1h4.9C6.2,3.1,6.6,2.5,7.1,1.8z"/>
	<path id="XMLID_106_" fill="none" d="M4.9,8c0-0.4,0-0.8,0.1-1.2H3c-0.6,0-1,0.4-1,1s0.4,1,1,1h1.9C4.9,8.6,4.9,8.3,4.9,8z"/>
	<path id="XMLID_107_" fill="none" d="M5,11.8c-0.6,0-1,0.4-1,1s0.4,1,1,1h1.9c-0.5-0.6-0.9-1.3-1.2-2H5z"/>
</g>
</svg>
