<?xml version="1.0" encoding="utf-8"?>
<!-- Generator: Adobe Illustrator 19.1.0, SVG Export Plug-In . SVG Version: 6.00 Build 0)  -->
<svg version="1.1" id="Layer_1" xmlns="http://www.w3.org/2000/svg" xmlns:xlink="http://www.w3.org/1999/xlink" x="0px" y="0px"
	 viewBox="-301 392.9 8 8" style="enable-background:new -301 392.9 8 8;" xml:space="preserve">
<path d="M-293.2,393.8l-3.1,3.1l3,3.1c0.2,0.2,0.2,0.5,0,0.8c-0.2,0.2-0.5,0.2-0.7,0l-3.1-3.2l-3.1,3.2c-0.2,0.2-0.5,0.2-0.7,0
	c-0.2-0.2-0.2-0.5,0-0.8l3.1-3.1l-3-3.1c-0.2-0.2-0.2-0.5,0-0.8s0.5-0.2,0.7,0l3.1,3.1l3.1-3.1c0.2-0.2,0.5-0.2,0.7,0
	C-293,393.3-293,393.6-293.2,393.8z"/>
</svg>
