<?xml version="1.0" encoding="utf-8"?>
<!-- Generator: Adobe Illustrator 19.0.0, SVG Export Plug-In . SVG Version: 6.00 Build 0)  -->
<svg version="1.1" id="Layer_1" xmlns="http://www.w3.org/2000/svg" xmlns:xlink="http://www.w3.org/1999/xlink" x="0px" y="0px"
	 viewBox="-367.7 263.8 75.3 46" style="enable-background:new -367.7 263.8 75.3 46;" xml:space="preserve">
<g>
	<g>
		<path d="M-292.9,283.4l-8.3-4.6l-5.2-14.3c-0.1-0.4-0.5-0.7-0.9-0.7h-57.8c-0.6,0-1,0.4-1,1v32.6h-0.6c-0.6,0-1,0.4-1,1s0.4,1,1,1
			h1.6h3.1c1.2-3.8,4.8-6.6,9-6.6c4.2,0,7.8,2.8,9,6.6h29.7c1.2-3.8,4.8-6.6,9-6.6c4.2,0,7.8,2.8,9,6.6h2.8c0.6,0,1-0.4,1-1v-14.1
			C-292.3,283.9-292.5,283.6-292.9,283.4z M-305.9,279.6c-0.2,0.3-0.5,0.4-0.8,0.4h-13.8c-0.6,0-1-0.4-1-1v-10.9c0-0.6,0.4-1,1-1
			h9.8c0.4,0,0.8,0.3,0.9,0.7l3.9,10.9C-305.7,279-305.7,279.3-305.9,279.6z"/>
		<path d="M-352.9,294.8c-4.1,0-7.5,3.3-7.5,7.5s3.3,7.5,7.5,7.5c4.1,0,7.5-3.3,7.5-7.5S-348.8,294.8-352.9,294.8z"/>
		<path d="M-305.2,294.8c-4.1,0-7.5,3.3-7.5,7.5s3.3,7.5,7.5,7.5c4.1,0,7.5-3.3,7.5-7.5S-301.1,294.8-305.2,294.8z"/>
	</g>
</g>
</svg>
