<?xml version="1.0" encoding="utf-8"?>
<!-- Generator: Adobe Illustrator 19.1.0, SVG Export Plug-In . SVG Version: 6.00 Build 0)  -->
<svg version="1.1" id="Layer_1" xmlns="http://www.w3.org/2000/svg" xmlns:xlink="http://www.w3.org/1999/xlink" x="0px" y="0px"
	 viewBox="-469 273 20.9 16" style="enable-background:new -469 273 20.9 16;" xml:space="preserve">
<g>
	<g>
		<path style="fill:#01B04F" d="M-455.2,281L-455.2,281L-455.2,281L-455.2,281L-455.2,281L-455.2,281L-455.2,281L-455.2,281
			c-0.2,0-0.5-0.1-0.6-0.3l0,0l-3-3.2c-0.3-0.4-0.3-0.9,0-1.2c0.4-0.3,0.9-0.3,1.2,0l2.3,2.5l5.6-5.6c0.3-0.3,0.9-0.3,1.2,0
			c0.2,0.2,0.3,0.4,0.3,0.6c0,0.2-0.1,0.5-0.3,0.6l-6.2,6.2l0,0C-454.7,280.9-454.9,281-455.2,281L-455.2,281
			C-455.1,281-455.1,281-455.2,281C-455.1,281-455.1,281-455.2,281C-455.1,281-455.1,281-455.2,281C-455.1,281-455.1,281-455.2,281
			L-455.2,281C-455.1,281-455.1,281-455.2,281L-455.2,281L-455.2,281L-455.2,281L-455.2,281L-455.2,281L-455.2,281L-455.2,281
			L-455.2,281L-455.2,281L-455.2,281L-455.2,281L-455.2,281z"/>
	</g>
	<path style="fill:#1B315D" d="M-451.4,279.1v8.5h-16.2v-9.7l7.6,6.7c0.1,0.1,0.3,0.2,0.5,0.2s0.4-0.1,0.5-0.2l3-2.6l-1.1-1.1l-2.4,2.1
		l-6.9-6.1h6.3c0-0.5,0.2-1,0.6-1.4l0,0h-8.8c-0.4,0-0.7,0.3-0.7,0.7v12.1c0,0.4,0.3,0.7,0.7,0.7h17.6c0.4,0,0.7-0.3,0.7-0.7v-10.6
		L-451.4,279.1z"/>
</g>
</svg>
