<?xml version="1.0" encoding="UTF-8"?>
<svg width="36px" height="36px" viewBox="0 0 36 36" version="1.1" xmlns="http://www.w3.org/2000/svg" xmlns:xlink="http://www.w3.org/1999/xlink">
    <!-- Generator: Sketch 51 (57462) - http://www.bohemiancoding.com/sketch -->
    <title>icons/learnMore-line</title>
    <desc>Created with Sketch.</desc>
    <defs>
        <path d="M25,18 C25,17.4477153 25.4477153,17 26,17 C26.5522847,17 27,17.4477153 27,18 L27,29 C27,30.1045695 26.1045695,31 25,31 L9,31 C7.8954305,31 7,30.1045695 7,29 L7,18 C7,17.4477153 7.44771525,17 8,17 C8.55228475,17 9,17.4477153 9,18 L9,29 L25,29 L25,18 Z M17.880761,5.62700691 L31.8362834,12.3463325 C32.2446071,12.5429328 32.5740552,12.8723809 32.7706555,13.2807046 C33.249835,14.2759236 32.8315024,15.4711597 31.8362834,15.9503392 L17.880761,22.6696648 C17.3324625,22.9336604 16.693797,22.9336604 16.1454985,22.6696648 L2.18997608,15.9503392 C1.78165239,15.7537389 1.45220427,15.4242908 1.25560398,15.0159671 C0.776424476,14.0207481 1.19475712,12.825512 2.18997608,12.3463325 L16.1454985,5.62700691 C16.693797,5.36301136 17.3324625,5.36301136 17.880761,5.62700691 Z M17.0131297,7.42901025 L3.05760732,14.1483359 L17.0131297,20.8676615 L30.9686522,14.1483359 L17.0131297,7.42901025 Z M17.6094947,14.5460896 C17.0572099,14.5460896 16.6094947,14.0983743 16.6094947,13.5460896 C16.6094947,12.9938048 17.0572099,12.5460896 17.6094947,12.5460896 L31.0692864,12.5460896 C32.1738559,12.5460896 33.0692864,13.4415201 33.0692864,14.5460896 L33.0692864,21.047672 C33.0692864,21.5999567 32.6215712,22.047672 32.0692864,22.047672 C31.5170017,22.047672 31.0692864,21.5999567 31.0692864,21.047672 L31.0692864,14.5460896 L17.6094947,14.5460896 Z M32,27 C30.3431458,27 29,25.6568542 29,24 C29,22.3431458 30.3431458,21 32,21 C33.6568542,21 35,22.3431458 35,24 C35,25.6568542 33.6568542,27 32,27 Z M32,25 C32.5522847,25 33,24.5522847 33,24 C33,23.4477153 32.5522847,23 32,23 C31.4477153,23 31,23.4477153 31,24 C31,24.5522847 31.4477153,25 32,25 Z" id="path-1"></path>
    </defs>
    <g id="icons/learnMore-line" stroke="none" stroke-width="1" fill="none" fill-rule="evenodd">
        <mask id="mask-2" fill="white">
            <use xlink:href="#path-1"></use>
        </mask>
        <use id="Rectangle-6" fill="#002F5F" fill-rule="nonzero" xlink:href="#path-1"></use>
    </g>
</svg>