<?xml version="1.0" encoding="utf-8"?>
<!-- Generator: Adobe Illustrator 19.0.0, SVG Export Plug-In . SVG Version: 6.00 Build 0)  -->
<svg version="1.1" id="Layer_1" xmlns="http://www.w3.org/2000/svg" xmlns:xlink="http://www.w3.org/1999/xlink" x="0px" y="0px"
	 width="19.7px" height="16.7px" viewBox="0 0 19.7 16.7" enable-background="new 0 0 19.7 16.7" xml:space="preserve">
<g id="XMLID_1_">
	<g id="XMLID_2_">
		<path id="XMLID_44_" fill="none" d="M8.8,13.7v0.7c0,0.4-0.3,0.7-0.7,0.7H2.3c-0.4,0-0.7-0.3-0.7-0.7V4.6c0-0.2,0.1-0.5,0.3-0.6
			l1.8-1.1l0.1-0.5c0.2-0.7,0.7-1.4,1.3-1.8c0,0,0,0,0,0C4.8,0.6,4.4,0.7,4,1L1.1,2.6C0.4,3,0,3.8,0,4.6v9.8c0,1.3,1,2.3,2.3,2.3
			h5.8c1,0,1.8-0.6,2.1-1.5L8.8,13.7z"/>
		<path id="XMLID_3_" fill="none" d="M10.3,1.6c0.2,0,0.4,0.1,0.5,0.2L17.8,9c0.2,0.2,0.2,0.4,0.2,0.5s0,0.3-0.2,0.5l-4.2,4.2
			c-0.2,0.2-0.4,0.2-0.5,0.2s-0.3,0-0.5-0.2L5.6,7.1C5.4,6.9,5.3,6.6,5.4,6.4l0.9-3.3c0.1-0.2,0.3-0.4,0.5-0.5l3.3-0.9
			C10.1,1.7,10.2,1.6,10.3,1.6 M10.3,0c-0.2,0-0.4,0-0.6,0.1L6.3,1C5.5,1.2,4.9,1.8,4.7,2.6L3.8,6c-0.2,0.8,0,1.7,0.6,2.3l7.1,7.1
			c0.5,0.5,1.1,0.7,1.7,0.7c0.6,0,1.2-0.2,1.7-0.7l4.2-4.2c0.9-0.9,0.9-2.4,0-3.3l-7.1-7.1C11.5,0.2,10.9,0,10.3,0L10.3,0z"/>
	</g>
	<path id="XMLID_30_" fill="none" d="M8.5,5.9L8.5,5.9c-0.5,0-1-0.4-1-1v0c0-0.5,0.4-1,1-1h0c0.5,0,1,0.4,1,1v0
		C9.5,5.4,9.1,5.9,8.5,5.9z"/>
</g>
</svg>
