<svg id="Layer_1" data-name="Layer 1" xmlns="http://www.w3.org/2000/svg" viewBox="0 0 32 32"><title>Artboard 2</title><path d="M16,0A16,16,0,1,0,32,16,16,16,0,0,0,16,0ZM13.23,23.42A5.38,5.38,0,0,1,11.18,23h0a.6.6,0,0,0-.28-.08,1.12,1.12,0,0,0-.32.08l-2,.81L9,21.46a.72.72,0,0,0-.11-.37l0,0V21a5.29,5.29,0,0,1,.88-6.79,8.61,8.61,0,0,0-.14,1.26,6.05,6.05,0,0,0,1.8,4.4,5.84,5.84,0,0,0,4.34,1.84,5.35,5.35,0,0,0,1.56-.22A5,5,0,0,1,13.23,23.42ZM22.75,22l-3.23-1.28a.54.54,0,0,0-.18,0,.63.63,0,0,0-.17,0,6,6,0,0,1-1,.31,5.6,5.6,0,0,1-1.66.24,6.31,6.31,0,0,1-4.65-1.95A6.51,6.51,0,0,1,10,14.59a7.68,7.68,0,0,1,.11-1.37,6.48,6.48,0,0,1,2.27-3.8,6.39,6.39,0,0,1,4.18-1.51,6.3,6.3,0,0,1,4.66,2,6.51,6.51,0,0,1,1.93,4.71,6.73,6.73,0,0,1-1.05,3.58l-.05.07a.57.57,0,0,0-.06.25Zm-1.41-4.31a5.8,5.8,0,0,0,.9-3.07,5.59,5.59,0,0,0-1.67-4.08,5.36,5.36,0,0,0-4-1.7,5.41,5.41,0,0,0-3.6,1.3,5.61,5.61,0,0,0-2,3.27,6.74,6.74,0,0,0-.1,1.21,5.54,5.54,0,0,0,1.65,4.06,5.33,5.33,0,0,0,4,1.69A4.78,4.78,0,0,0,18,20.13a6.65,6.65,0,0,0,.81-.24,1.59,1.59,0,0,1,.56-.15,1.76,1.76,0,0,1,.5.1l1.66.66-.42-1.92a1.67,1.67,0,0,1,.1-.63m-7-2.42a1,1,0,1,1,1-1A1,1,0,0,1,14.22,15.53Zm2.37,0a1,1,0,1,1,1-1A1,1,0,0,1,16.59,15.53Zm2.37,0a1,1,0,1,1,1-1A1,1,0,0,1,19,15.53Z"/></svg>