<?xml version="1.0" encoding="utf-8"?>
<!-- Generator: Adobe Illustrator 19.1.0, SVG Export Plug-In . SVG Version: 6.00 Build 0)  -->
<svg version="1.1" id="Layer_1" xmlns="http://www.w3.org/2000/svg" xmlns:xlink="http://www.w3.org/1999/xlink" x="0px" y="0px"
	 viewBox="0 0 20 20" style="enable-background:new 0 0 20 20;" xml:space="preserve">
<g>
	<path style="fill:#01B04F" d="M10,10.2c-0.7,0-1.2,0.5-1.2,1.2c0,0.5,0.3,0.9,0.7,1.1v1.1c0,0.2,0.2,0.3,0.3,0.3h0.3c0.2,0,0.3-0.2,0.3-0.3
		v-1.1c0.4-0.2,0.8-0.6,0.8-1.1C11.2,10.7,10.7,10.2,10,10.2z"/>
	<path style="fill:#01B04F" d="M10,0C4.5,0,0,4.5,0,10c0,5.5,4.5,10,10,10c5.5,0,10-4.5,10-10C20,4.5,15.5,0,10,0z M6,7.2
		c0-2,1.6-3.7,3.7-3.7h0.6c2,0,3.7,1.6,3.7,3.7v0.5h-1.2V7.2c0-1.4-1.1-2.5-2.5-2.5H9.7c-1.4,0-2.5,1.1-2.5,2.5v0.5H6V7.2z
		 M14.7,14.2c0,0.8-0.6,1.4-1.4,1.4H6.8c-0.8,0-1.4-0.6-1.4-1.4V10c0-0.8,0.6-1.4,1.4-1.4h6.5c0.8,0,1.4,0.6,1.4,1.4V14.2z"/>
</g>
</svg>
