<svg id="Layer_1" data-name="Layer 1" xmlns="http://www.w3.org/2000/svg" viewBox="0 0 32 32"><defs><style>.cls-1{fill-rule:evenodd;}</style></defs><title>Artboard 2</title><path d="M16,0A16,16,0,1,0,32,16,16,16,0,0,0,16,0Zm7.38,18.25A14.53,14.53,0,0,1,23,21.12a6,6,0,0,1-1.17,2.5,2.21,2.21,0,0,1-1.64.63,2.17,2.17,0,0,1-1.6-.68A2.27,2.27,0,0,1,17.88,22V17.8a2.39,2.39,0,0,1,.6-1.62A1.9,1.9,0,0,1,20,15.5a1.94,1.94,0,0,1,1.71.94l.12-.08a.82.82,0,0,0,.24-.29,1.56,1.56,0,0,0,.15-.49,6.23,6.23,0,0,0-.19-2.5,1.58,1.58,0,0,0-.71-1,2.61,2.61,0,0,1-.7-.53,3.32,3.32,0,0,0-.31-.39l-.39-.39a.68.68,0,0,0-.2-.15,6.69,6.69,0,0,0-1.29-.9A5.37,5.37,0,0,0,16,9.25a5.29,5.29,0,0,0-2.34.51,5.16,5.16,0,0,0-1.33.9.68.68,0,0,0-.2.15l-.39.39a3.32,3.32,0,0,0-.31.39,2.46,2.46,0,0,1-.7.53,1.58,1.58,0,0,0-.71,1,6.18,6.18,0,0,0-.19,2.5,1.12,1.12,0,0,0,.51.86,1.94,1.94,0,0,1,1.71-.94,1.91,1.91,0,0,1,1.47.66,2.37,2.37,0,0,1,.6,1.64V22a2.27,2.27,0,0,1-.66,1.62,2.17,2.17,0,0,1-1.6.68,2.21,2.21,0,0,1-1.64-.63,6,6,0,0,1-1.17-2.5,14.53,14.53,0,0,1-.43-2.87,25.8,25.8,0,0,1-.08-3.45,8.56,8.56,0,0,1,2.19-5.67c.41-.41.74-.71,1-.9A7.07,7.07,0,0,1,16,6.75a6.76,6.76,0,0,1,3.2.78,7.07,7.07,0,0,1,1.14.7,7.59,7.59,0,0,1,.93.9,8.56,8.56,0,0,1,2.19,5.67A25.8,25.8,0,0,1,23.38,18.25Z"/></svg>