<?xml version="1.0" encoding="UTF-8"?>
<svg width="36px" height="36px" viewBox="0 0 36 36" version="1.1" xmlns="http://www.w3.org/2000/svg" xmlns:xlink="http://www.w3.org/1999/xlink">
    <!-- Generator: Sketch 51 (57462) - http://www.bohemiancoding.com/sketch -->
    <title>icons/play-line</title>
    <desc>Created with Sketch.</desc>
    <defs>
        <path d="M18,35 C8.61115925,35 1,27.3888407 1,18 C1,8.61115925 8.61115925,1 18,1 C27.3888407,1 35,8.61115925 35,18 C35,27.3888407 27.3888407,35 18,35 Z M18,33 C26.2842712,33 33,26.2842712 33,18 C33,9.71572875 26.2842712,3 18,3 C9.71572875,3 3,9.71572875 3,18 C3,26.2842712 9.71572875,33 18,33 Z M13.5,12.5424934 L13.5,24.001525 L24.9590316,18.2720092 L13.5,12.5424934 Z M14.3944272,25.7903794 C13.4064702,26.2843579 12.2051241,25.8839092 11.7111456,24.8959522 C11.5722902,24.6182413 11.5,24.3120152 11.5,24.001525 L11.5,12.5424934 C11.5,11.4379239 12.3954305,10.5424934 13.5,10.5424934 C13.8104902,10.5424934 14.1167163,10.6147836 14.3944272,10.7536391 L25.8534588,16.4831548 C26.8414158,16.9771333 27.2418645,18.1784794 26.747886,19.1664364 C26.5543586,19.5534912 26.2405136,19.8673362 25.8534588,20.0608636 L14.3944272,25.7903794 Z" id="path-1"></path>
    </defs>
    <g id="icons/play-line" stroke="none" stroke-width="1" fill="none" fill-rule="evenodd">
        <mask id="mask-2" fill="white">
            <use xlink:href="#path-1"></use>
        </mask>
        <use id="Oval" fill="#002F5F" fill-rule="nonzero" xlink:href="#path-1"></use>
    </g>
</svg>