<?xml version="1.0" encoding="utf-8"?>
<!-- Generator: Adobe Illustrator 19.1.0, SVG Export Plug-In . SVG Version: 6.00 Build 0)  -->
<svg version="1.1" id="Capa_1" xmlns="http://www.w3.org/2000/svg" xmlns:xlink="http://www.w3.org/1999/xlink" x="0px" y="0px"
	 viewBox="-129.1 262.2 185 268.8" style="enable-background:new -129.1 262.2 185 268.8;" xml:space="preserve">
<g>
	<path d="M52.3,429.7c-4.9-4.9-12.8-4.9-17.7,0l-58.7,58.7V274.7c0-6.9-5.6-12.5-12.5-12.5c-6.9,0-12.5,5.6-12.5,12.5v213.7
		l-58.7-58.7c-4.9-4.9-12.8-4.9-17.7,0c-4.9,4.9-4.9,12.8,0,17.7l80,80c2.4,2.4,5.6,3.7,8.8,3.7s6.4-1.2,8.8-3.7l80-80
		C57.1,442.5,57.1,434.5,52.3,429.7z"/>
</g>
</svg>
