<?xml version="1.0" encoding="utf-8"?>
<!-- Generator: Adobe Illustrator 19.0.0, SVG Export Plug-In . SVG Version: 6.00 Build 0)  -->
<svg version="1.1" id="Layer_1" xmlns="http://www.w3.org/2000/svg" xmlns:xlink="http://www.w3.org/1999/xlink" x="0px" y="0px"
	 viewBox="-334 249.1 46.1 48.9" style="enable-background:new -334 249.1 46.1 48.9;" xml:space="preserve">
<path d="M-300.6,254.6c-7.7-7.7-20.1-7.7-27.7,0c-7.7,7.7-7.7,20.1,0,27.7c6.8,6.8,17.3,7.5,25,2.3l9.3,9.2c1.4,1.4,3.6,1.4,5,0
	c1.4-1.4,1.4-3.6,0-5l-9.3-9.2C-293,271.9-293.8,261.4-300.6,254.6z M-305.4,277.5c-5,5-13.1,5-18.1,0c-5-5-5-13.1,0-18.1
	c5-5,13.1-5,18.1,0C-300.4,264.4-300.4,272.5-305.4,277.5z"/>
</svg>
