<?xml version="1.0" encoding="UTF-8"?>
<svg width="36px" height="36px" viewBox="0 0 36 36" version="1.1" xmlns="http://www.w3.org/2000/svg" xmlns:xlink="http://www.w3.org/1999/xlink">
    <!-- Generator: Sketch 51 (57462) - http://www.bohemiancoding.com/sketch -->
    <title>icons/support</title>
    <desc>Created with Sketch.</desc>
    <defs>
        <path d="M20.9507332,32.184082 L20.9507332,30.184082 L23.9733137,30.184082 C26.6785174,30.184082 28.8715183,27.9910811 28.8715183,25.2858774 L28.8715183,15.9357592 C28.8715183,9.89610615 23.9754122,5 17.9357592,5 C11.8961062,5 7,9.89610615 7,15.9357592 L7,23.7075906 L5,23.7075906 L5,15.9357592 C5,8.79153665 10.7915367,3 17.9357592,3 C25.0799817,3 30.8715183,8.79153665 30.8715183,15.9357592 L30.8715183,25.2858774 C30.8715183,29.0956506 27.7830869,32.184082 23.9733137,32.184082 L20.9507332,32.184082 Z M20.9507332,32.184082 L20.9507332,30.184082 L23.9733137,30.184082 C26.6785174,30.184082 28.8715183,27.9910811 28.8715183,25.2858774 L28.8715183,15.9357592 C28.8715183,9.89610615 23.9754122,5 17.9357592,5 C11.8961062,5 7,9.89610615 7,15.9357592 L7,23.7075906 L5,23.7075906 L5,15.9357592 C5,8.79153665 10.7915367,3 17.9357592,3 C25.0799817,3 30.8715183,8.79153665 30.8715183,15.9357592 L30.8715183,25.2858774 C30.8715183,29.0956506 27.7830869,32.184082 23.9733137,32.184082 L20.9507332,32.184082 Z M16,30 L16,32 L20,32 L20,30 L16,30 Z M15,28 L21,28 C21.5522847,28 22,28.4477153 22,29 L22,33 C22,33.5522847 21.5522847,34 21,34 L15,34 C14.4477153,34 14,33.5522847 14,33 L14,29 C14,28.4477153 14.4477153,28 15,28 Z M31,15 L31,23 L32,23 L32,15 L31,15 Z M29,13 L33,13 C33.5522847,13 34,13.4477153 34,14 L34,24 C34,24.5522847 33.5522847,25 33,25 L29,25 L29,13 Z M5,15 L4,15 L4,23 L5,23 L5,15 Z M7,13 L7,25 L3,25 C2.44771525,25 2,24.5867244 2,24.0769231 L2,13.9230769 C2,13.4132756 2.44771525,13 3,13 L7,13 Z" id="path-1"></path>
    </defs>
    <g id="icons/support" stroke="none" stroke-width="1" fill="none" fill-rule="evenodd">
        <mask id="mask-2" fill="white">
            <use xlink:href="#path-1"></use>
        </mask>
        <use id="Rectangle-3" fill="#002F5F" fill-rule="nonzero" xlink:href="#path-1"></use>
    </g>
</svg>