<?xml version="1.0" encoding="utf-8"?>
<!-- Generator: Adobe Illustrator 19.1.0, SVG Export Plug-In . SVG Version: 6.00 Build 0)  -->
<svg version="1.1" id="Layer_1" xmlns="http://www.w3.org/2000/svg" xmlns:xlink="http://www.w3.org/1999/xlink" x="0px" y="0px"
	 viewBox="-467 273 24.6 16" style="enable-background:new -467 273 24.6 16;" xml:space="preserve">
<g>
	<path d="M-443.5,279c0-0.8-1.3-1.5-2.1-1.5h-2.4c-0.8,0-1.5,0.7-1.5,1.5v3.9c0.1,0,0.2,0,0.2,0c2.1,0,3.9,1.7,3.9,3.9
		l0,0h0.9c0.8,0,2.1-0.7,2.1-1.5L-443.5,279z M-444.9,281.6h-2.5c-0.3,0-0.6-0.3-0.6-0.6v-1.6c0-0.3,0.3-0.6,0.6-0.6h2.1
		c0.3,0,0.5,0.2,0.6,0.6l0.4,1.6C-444.3,281.4-444.5,281.6-444.9,281.6z"/>
	<g>
		<path d="M-449.3,289c-1.3,0-2.3-1-2.3-2.3c0-1.3,1-2.3,2.3-2.3c1.3,0,2.3,1,2.3,2.3C-447,288-448,289-449.3,289z
			 M-449.3,285.6c-0.6,0-1.1,0.5-1.1,1.1c0,0.6,0.5,1.1,1.1,1.1c0.6,0,1.1-0.5,1.1-1.1C-448.2,286.1-448.7,285.6-449.3,285.6z"/>
	</g>
	<path d="M-450.8,283.2v-8.1c0-1.1-0.9-2.1-2.1-2.1h-12c-1.2,0-2.1,0.9-2.1,2.1v8.5c0,1.1,0.9,2,1.9,2
		c0.5-1.6,2-2.8,3.7-2.8c1.8,0,3.3,1.2,3.7,2.8h4.7C-452.7,284.5-451.9,283.6-450.8,283.2z"/>
	<g>
		<path d="M-461.4,289c-1.3,0-2.3-1-2.3-2.3c0-1.3,1-2.3,2.3-2.3c1.3,0,2.3,1,2.3,2.3C-459.1,288-460.1,289-461.4,289z
			 M-461.4,285.6c-0.6,0-1.1,0.5-1.1,1.1c0,0.6,0.5,1.1,1.1,1.1s1.1-0.5,1.1-1.1C-460.3,286.1-460.8,285.6-461.4,285.6z"/>
	</g>
</g>
</svg>
