<?xml version="1.0" encoding="utf-8"?>
<!-- Generator: Adobe Illustrator 22.0.0, SVG Export Plug-In . SVG Version: 6.00 Build 0)  -->
<svg version="1.1" id="Icon-delivered" xmlns="http://www.w3.org/2000/svg" xmlns:xlink="http://www.w3.org/1999/xlink" x="0px"
	 y="0px" viewBox="0 0 70 70" style="enable-background:new 0 0 70 70;" xml:space="preserve">
<style type="text/css">
	.st0{fill:#E8E8E8;}
	.st1{fill-rule:evenodd;clip-rule:evenodd;fill:#B6B6B6;}
	.st2{fill:#B6B6B6;}
	.st3{fill:none;stroke:#B6B6B6;stroke-width:1.5392;stroke-miterlimit:10;}
	.st4{fill:none;stroke:#B6B6B6;stroke-width:1.7851;stroke-miterlimit:10;}
	.st5{fill:#01B04F;}
	.st6{fill-rule:evenodd;clip-rule:evenodd;fill:#FFFFFF;}
	.st7{fill-rule:evenodd;clip-rule:evenodd;}
	.st8{fill:#002F5F;}
	.st9{fill:#FFFFFF;}
	.st10{fill:none;stroke:#FFFFFF;stroke-width:1.5392;stroke-miterlimit:10;}
	.st11{fill:none;stroke:#000000;stroke-width:1.5392;stroke-miterlimit:10;}
	.st12{fill:none;stroke:#FFFFFF;stroke-width:1.7851;stroke-miterlimit:10;}
	.st13{fill:none;stroke:#000000;stroke-width:1.7851;stroke-miterlimit:10;}
	.st14{fill:none;stroke:#FFFFFF;stroke-width:2;stroke-miterlimit:10;}
	.st15{fill:none;stroke:#000000;stroke-width:2;stroke-miterlimit:10;}
	.st16{fill:none;stroke:#FFFFFF;stroke-width:3;stroke-miterlimit:10;}
	.st17{fill:#1B315C;stroke:#FFFFFF;stroke-width:2;stroke-miterlimit:10;}
	.st18{fill:none;stroke:#000000;stroke-width:3;stroke-miterlimit:10;}
	.st19{fill-rule:evenodd;clip-rule:evenodd;fill:#F0242D;}
	.st20{fill:#F0242D;}
	.st21{fill:none;}
</style>
<g>
	<circle class="st8" cx="35" cy="35" r="35"/>
	<path class="st16" d="M51.5,47.2h-35v-13h35V47.2z"/>
	<circle class="st17" cx="52.3" cy="46.5" r="6.5"/>
	<path class="st6" d="M55.2,48.2l-2-2l2.1-2c0.1-0.1,0.1-0.2,0-0.3l-0.6-0.6c-0.1-0.1-0.1-0.1-0.2-0.1c0,0-0.1,0-0.1,0.1l-2.1,2
		l-2.1-2c-0.1-0.1-0.1-0.1-0.1-0.1c-0.1,0-0.1,0-0.2,0.1l-0.6,0.6c-0.1,0.1-0.1,0.2,0,0.3l2.1,2l-2.1,2.1c0,0-0.1,0.1-0.1,0.1
		s0,0.1,0.1,0.2l0.6,0.6c0,0,0.1,0.1,0.2,0.1s0.1,0,0.2-0.1l2-2.1l2.1,2c0.1,0.1,0.1,0.1,0.1,0.1c0.1,0,0.1,0,0.2-0.1l0.6-0.6
		c0.1,0,0.1-0.1,0.1-0.2C55.3,48.4,55.2,48.3,55.2,48.2z"/>
	<rect x="29.5" y="39" class="st9" width="9" height="3"/>
	<rect x="19.5" y="23" class="st9" width="8" height="10"/>
	<rect x="21.5" y="17" class="st9" width="4" height="11"/>
	<rect x="30" y="23" class="st9" width="8" height="10"/>
	<rect x="32" y="17" class="st9" width="4" height="11"/>
	<rect x="40.5" y="23" class="st9" width="8" height="10"/>
	<rect x="42.5" y="17" class="st9" width="4" height="11"/>
</g>
</svg>
