<svg id="Icon-delivered" xmlns="http://www.w3.org/2000/svg" viewBox="0 0 60 29"><defs><style>.cls-1{fill:none;stroke:#fff;stroke-miterlimit:10;stroke-width:1.79px;}.cls-2,.cls-3{fill:#fff;}.cls-2{fill-rule:evenodd;}</style></defs><title>Artboard 17 copy</title><ellipse class="cls-1" cx="26.05" cy="24.97" rx="3.02" ry="3.16"/><ellipse class="cls-1" cx="47.19" cy="24.97" rx="3.02" ry="3.16"/><path class="cls-2" d="M50.1,11.28a.89.89,0,0,0-.89.89v3.48a.89.89,0,0,0,.89.89h5.24a.89.89,0,0,0,.71-1.05L55.38,12a.88.88,0,0,0-.87-.72ZM54.17,25a7.17,7.17,0,0,0-7-6.32,8.12,8.12,0,0,0-1,.07V11.85a2.67,2.67,0,0,1,2.67-2.68h5.31a2.68,2.68,0,0,1,2.6,2l2.66,10.44a2.69,2.69,0,0,1-1.93,3.26,3,3,0,0,1-.67.08Z"/><path class="cls-2" d="M40.86,23.19H32.41a6.9,6.9,0,0,0-12.82,0h-.32a3.4,3.4,0,0,1-3.4-3.4v-16A3.4,3.4,0,0,1,19.27.44H40.84a3.39,3.39,0,0,1,3.39,3.39V19.58A7.41,7.41,0,0,0,40.86,23.19Z"/><rect class="cls-3" x="4.49" y="7.24" width="9" height="2.5"/><rect class="cls-3" x="6.49" y="16.24" width="7" height="2.5"/><rect class="cls-3" x="0.49" y="11.74" width="13" height="2.5"/></svg>