<svg id="Layer_1" data-name="Layer 1" xmlns="http://www.w3.org/2000/svg" viewBox="0 0 32 32"><title>Artboard 1</title><path d="M17.58,11.84a2.1,2.1,0,0,1,.65,1.54,2.12,2.12,0,0,1-.65,1.55,2.27,2.27,0,0,1-3.16,0,2.12,2.12,0,0,1-.65-1.55,2.1,2.1,0,0,1,.65-1.54,2.27,2.27,0,0,1,3.16,0ZM32,16A16,16,0,1,1,16,0,16,16,0,0,1,32,16Zm-9.75-2.62a5.81,5.81,0,0,0-1.84-4.33A6.06,6.06,0,0,0,16,7.25a6.06,6.06,0,0,0-4.41,1.8,5.81,5.81,0,0,0-1.84,4.33,10.66,10.66,0,0,0,1.56,4.89A27.86,27.86,0,0,0,14.44,23L16,24.75c.18-.18.41-.44.68-.76s.77-1,1.49-1.9a33,33,0,0,0,1.89-2.73,20.6,20.6,0,0,0,1.51-3A8.14,8.14,0,0,0,22.25,13.38Z"/></svg>