<?xml version="1.0" encoding="utf-8"?>
<!-- Generator: Adobe Illustrator 19.1.0, SVG Export Plug-In . SVG Version: 6.00 Build 0)  -->
<svg version="1.1" id="Layer_1" xmlns="http://www.w3.org/2000/svg" xmlns:xlink="http://www.w3.org/1999/xlink" x="0px" y="0px"
	 viewBox="-364.9 240.5 89.5 89.5" style="enable-background:new -364.9 240.5 89.5 89.5;" xml:space="preserve">
<g>
	<path d="M-277.4,248.1H-362c-2,0-3,1-3,3v76.6c0,1.3,1.1,2.4,2.2,2.4h85.4c1.1,0,1.9-1,1.9-2.3v-77.7
		C-275.4,248.8-276.3,248.1-277.4,248.1z M-357.5,322.6v-63.4h74.6v63.4H-357.5z"/>
	<path d="M-348,264.4c-1.1,0-2-0.9-2-2v-19.9c0-1.1,0.9-2,2-2h4c1.1,0,2,0.9,2,2v19.9c0,1.1-0.9,2-2,2L-348,264.4L-348,264.4z"/>
	<path d="M-296.3,264.4c-1.1,0-2-0.9-2-2v-19.9c0-1.1,0.9-2,2-2h4c1.1,0,2,0.9,2,2v19.9c0,1.1-0.9,2-2,2L-296.3,264.4L-296.3,264.4z
		"/>
</g>
<g>
	<rect x="-349.7" y="274.9" width="14.5" height="15.3"/>
	<rect x="-349.7" y="298.7" width="14.5" height="15.3"/>
	<rect x="-327.4" y="274.9" width="14.5" height="15.3"/>
	<rect x="-327.4" y="298.7" width="14.5" height="15.3"/>
	<rect x="-305.2" y="274.9" width="14.5" height="15.3"/>
	<rect x="-305.2" y="298.7" width="14.5" height="15.3"/>
</g>
</svg>
