<svg xmlns="http://www.w3.org/2000/svg" width="40" height="40"><path d="M33 18.9H8v-3.1c0-1.7 1.4-3.1 3.1-3.1.1 1.7 1.6 3 3.3 2.9 1.6 0 2.9-1.3 3-2.9h6.2c0 1.7 1.4 3.1 3.1 3.1 1.7 0 3.1-1.4 3.1-3.1 1.7 0 3.1 1.4 3.1 3.1v3.1h.1zm0 1.6v9.4c0 1.7-1.4 3.1-3.1 3.1H11.1C9.4 33 8 31.6 8 29.9v-9.4h25zM26.8 9.6c.9 0 1.6.7 1.6 1.6v1.6c0 .9-.7 1.6-1.6 1.6-.9 0-1.6-.7-1.6-1.6v-1.7c0-.8.7-1.5 1.6-1.5zm-12.6 0c.9 0 1.6.7 1.6 1.6v1.6c0 .9-.7 1.6-1.6 1.6s-1.5-.8-1.5-1.7v-1.6c0-.8.7-1.5 1.5-1.5z" fill="#002f5f"/></svg>