<?xml version="1.0" encoding="utf-8"?>
<!-- Generator: Adobe Illustrator 19.1.0, SVG Export Plug-In . SVG Version: 6.00 Build 0)  -->
<svg version="1.1" id="Layer_1" xmlns="http://www.w3.org/2000/svg" xmlns:xlink="http://www.w3.org/1999/xlink" x="0px" y="0px"
	 viewBox="-624 583.3 98 98" style="enable-background:new -624 583.3 98 98;" xml:space="preserve">
<circle cx="-541" cy="672.3" r="9"/>
<circle cx="-593" cy="672.3" r="9"/>
<path d="M-586.9,643.2l60.9-13.9v-32h-70.4l-3.9-10.7c-0.7-2-2.6-3.3-4.7-3.3h-14c-2.8,0-5,2.2-5,5s2.2,5,5,5h10.5l15.3,41.5
	c-6.5,3-8.9,8.8-8.3,13.8c0.8,6.8,6.5,11.7,13.6,11.7h51c2.8,0,5-2.2,5-5s-2.2-5-5-5h-51c-2.3,0-3.5-1.4-3.6-2.8
	C-591.9,645.5-590.1,643.9-586.9,643.2z"/>
</svg>
