<?xml version="1.0" encoding="utf-8"?>
<!-- Generator: Adobe Illustrator 22.1.0, SVG Export Plug-In . SVG Version: 6.00 Build 0)  -->
<svg version="1.1" id="Layer_1" xmlns="http://www.w3.org/2000/svg" xmlns:xlink="http://www.w3.org/1999/xlink" x="0px" y="0px"
	 width="14px" height="14px" viewBox="0 0 14 14" style="enable-background:new 0 0 14 14;" xml:space="preserve">
<path d="M13.7,1.6L8.3,7l5.3,5.4c0.4,0.4,0.4,1,0,1.3c-0.4,0.4-0.9,0.4-1.3,0L6.9,8.2l-5.4,5.5c-0.4,0.4-0.9,0.4-1.3,0s-0.4-1,0-1.3
	L5.6,7L0.3,1.6c-0.4-0.4-0.4-1,0-1.3c0.4-0.4,0.9-0.4,1.3,0L7,5.8l5.4-5.5c0.4-0.4,0.9-0.4,1.3,0C14.1,0.6,14.1,1.2,13.7,1.6z"/>
</svg>
