<?xml version="1.0" encoding="utf-8"?>
<!-- Generator: Adobe Illustrator 19.0.0, SVG Export Plug-In . SVG Version: 6.00 Build 0)  -->
<svg version="1.1" id="Layer_1" xmlns="http://www.w3.org/2000/svg" xmlns:xlink="http://www.w3.org/1999/xlink" x="0px" y="0px"
	 width="16px" height="16px" viewBox="0 0 16 16" enable-background="new 0 0 16 16" xml:space="preserve">
<g id="XMLID_1_">
	<path id="XMLID_3_" fill="none" d="M12.4,9.7V14c0,0.2-0.2,0.4-0.4,0.4H2c-0.2,0-0.4-0.2-0.4-0.4V2c0-0.2,0.2-0.4,0.4-0.4h9.9
		c0.2,0,0.4,0.2,0.4,0.4v2.1l1.2-1.2c0.1-0.1,0.3-0.2,0.4-0.3V2c0-1.1-0.9-2-2-2H7H2C0.9,0,0,0.9,0,2v12c0,1.1,0.9,2,2,2h9.9
		c1.1,0,2-0.9,2-2V8.1L12.4,9.7z"/>
	<path id="XMLID_2_" fill="none" d="M7.9,12.4c-0.3,0-0.5-0.1-0.7-0.3L4.3,9.3c-0.4-0.4-0.4-1,0-1.4s1-0.4,1.4,0L7.9,10l6.4-6.2
		c0.4-0.4,1-0.4,1.4,0c0.4,0.4,0.4,1,0,1.4l-7.1,7C8.4,12.3,8.2,12.4,7.9,12.4z"/>
	<path id="XMLID_4_" fill="none" d="M10,5.1H4.1c-0.4,0-0.8-0.4-0.8-0.8s0.4-0.8,0.8-0.8H10c0.4,0,0.8,0.4,0.8,0.8S10.5,5.1,10,5.1z
		"/>
</g>
</svg>
