<?xml version="1.0" encoding="utf-8"?>
<!-- Generator: Adobe Illustrator 19.1.0, SVG Export Plug-In . SVG Version: 6.00 Build 0)  -->
<svg version="1.1" id="Layer_1" xmlns="http://www.w3.org/2000/svg" xmlns:xlink="http://www.w3.org/1999/xlink" x="0px" y="0px"
	 viewBox="-294 388 10.9 17" style="enable-background:new -294 388 10.9 17;" xml:space="preserve">
<g>
	<path d="M-289.3,403c-1.7-0.2-3.4-0.9-4.7-1.9l1.5-2.3c1.1,0.8,2.1,1.4,3.2,1.6v-3.2c-2.9-0.8-4.3-1.8-4.3-4.2v0
		c0-2.2,1.7-3.6,4.2-3.9V388h2.1v1.2c1.4,0.2,2.6,0.7,3.7,1.4l-1.3,2.3c-0.8-0.5-1.6-1-2.5-1.2v3c3,0.8,4.3,2,4.3,4.2v0
		c0,2.2-1.7,3.7-4.2,3.9v2h-2.1L-289.3,403C-289.3,403-289.3,403-289.3,403z M-289.2,394.3v-2.7c-1,0.1-1.4,0.6-1.4,1.2v0
		C-290.6,393.5-290.3,393.9-289.2,394.3z M-287.3,397.8v2.8c0.9-0.1,1.4-0.6,1.4-1.3v0C-285.9,398.6-286.3,398.2-287.3,397.8z"/>
</g>
</svg>
