<?xml version="1.0" encoding="utf-8"?>
<!-- Generator: Adobe Illustrator 19.1.0, SVG Export Plug-In . SVG Version: 6.00 Build 0)  -->
<svg version="1.1" id="Layer_1" xmlns="http://www.w3.org/2000/svg" xmlns:xlink="http://www.w3.org/1999/xlink" x="0px" y="0px"
	 viewBox="-468 273 21.3 16" style="enable-background:new -468 273 21.3 16;" xml:space="preserve">
<g>
	<path style="fill:#1B315D" d="M-450.1,281v6.6h-16.5v-9.9l7.7,6.8c0.2,0.1,0.3,0.2,0.5,0.2c0.2,0,0.4-0.1,0.5-0.2l2.5-2.2
		c-0.1-0.1-0.3-0.2-0.4-0.3c-0.3-0.3-0.5-0.6-0.5-1l-2,1.9l-7-6.2h11l-1.4-1.4h-11.6c-0.4-0.1-0.7,0.2-0.7,0.6v12.3
		c0,0.5,0.3,0.8,0.7,0.8h17.9c0.4,0,0.7-0.3,0.7-0.7v-5.9L-450.1,281z"/>
	<path style="fill:#EC1C24" d="M-449.5,277.1l2.5-2.6c0.3-0.3,0.3-0.9,0-1.3c-0.3-0.3-0.9-0.3-1.3,0l-2.5,2.5l-2.5-2.5
		c-0.3-0.3-0.9-0.3-1.3,0c-0.3,0.3-0.3,0.9,0,1.3l2.6,2.6l-2.5,2.5c-0.3,0.3-0.3,0.9,0,1.3c0.2,0.2,0.4,0.3,0.6,0.3
		c0.2,0,0.5-0.1,0.6-0.3l2.5-2.5l2.5,2.5c0.2,0.2,0.4,0.3,0.6,0.3c0.2,0,0.5-0.1,0.6-0.3c0.3-0.3,0.3-0.9,0-1.3L-449.5,277.1z"/>
</g>
</svg>
