<?xml version="1.0" encoding="UTF-8"?>
<svg width="70px" height="39px" viewBox="0 0 70 39" version="1.1" xmlns="http://www.w3.org/2000/svg" xmlns:xlink="http://www.w3.org/1999/xlink">
    <!-- Generator: Sketch 51.1 (57501) - http://www.bohemiancoding.com/sketch -->
    <title>confirmation-Image</title>
    <desc>Created with Sketch.</desc>
    <defs></defs>
    <g id="Invoice-Discrepancy-Pricing" stroke="none" stroke-width="1" fill="none" fill-rule="evenodd">
        <g id="creditRequestForm-confirmation" transform="translate(-249.000000, -233.000000)" fill="#002F5F">
            <g id="Group-2" transform="translate(249.000000, 233.000000)">
                <g id="confirmation-Image">
                    <path d="M68.0821918,34.125975 C68.0821918,34.58715 67.9680822,35.017125 67.780137,35.405175 C67.7532877,35.3691 67.7408219,35.32815 67.7082192,35.295975 L50.1823288,17.504175 L67.5308219,3.44565 C67.5739726,3.41055 67.5979452,3.3618 67.6334247,3.32085 C67.9134247,3.772275 68.0821918,4.302675 68.0821918,4.874025 L68.0821918,34.125975 Z M18.2191781,37.05 L17.2593151,37.05 C16.8124658,37.05 16.3943836,36.9369 16.0165753,36.750675 L33.7812329,18.71805 L38.3542466,22.42305 C39.1990411,23.067525 40.2106849,23.39025 41.2252055,23.39025 C42.2473973,23.39025 43.2724658,23.06265 44.1335616,22.4055 L48.6739726,18.726825 L66.3542466,36.6756 C66.3849315,36.7068 66.4242466,36.719475 66.4587671,36.7458 C66.0780822,36.93495 65.6571233,37.05 65.2064384,37.05 L18.2191781,37.05 Z M14.3835616,4.874025 C14.3835616,4.3134 14.5475342,3.795675 14.8169863,3.3501 L32.2728767,17.4954 L14.6664384,35.368125 C14.49,34.989825 14.3835616,34.57155 14.3835616,34.125975 L14.3835616,4.874025 Z M65.2064384,1.95 C65.5209589,1.95 65.8191781,2.01435 66.1030137,2.1099 L42.9617808,20.86305 C41.9424658,21.63915 40.5232877,21.63915 39.5269863,20.8806 L16.3636986,2.1099 C16.6465753,2.01435 16.9447945,1.95 17.2593151,1.95 L65.2064384,1.95 Z M65.2064384,0 L17.2593151,0 C14.6156164,0 12.4657534,2.186925 12.4657534,4.874025 L12.4657534,29.25 L6.71232877,29.25 C6.18205479,29.25 5.75342466,29.6868 5.75342466,30.225 C5.75342466,30.7632 6.18205479,31.2 6.71232877,31.2 L12.4657534,31.2 L12.4657534,33.15 L3.83561644,33.15 C3.30534247,33.15 2.87671233,33.5868 2.87671233,34.125 C2.87671233,34.6632 3.30534247,35.1 3.83561644,35.1 L12.5626027,35.1 C12.7073973,35.824425 13.0247945,36.4806 13.4476712,37.05 L0.95890411,37.05 C0.428630137,37.05 0,37.4868 0,38.025 C0,38.5632 0.428630137,39 0.95890411,39 L17.2593151,39 L18.2191781,39 L65.2064384,39 C67.850137,39 70,36.813075 70,34.125975 L70,4.874025 C70,2.186925 67.850137,0 65.2064384,0 Z" id="Page-1"></path>
                </g>
            </g>
        </g>
    </g>
</svg>