<?xml version="1.0" encoding="utf-8"?>
<!-- Generator: Adobe Illustrator 19.1.0, SVG Export Plug-In . SVG Version: 6.00 Build 0)  -->
<svg version="1.1" id="Layer_1" xmlns="http://www.w3.org/2000/svg" xmlns:xlink="http://www.w3.org/1999/xlink" x="0px" y="0px"
	 viewBox="-291 391 29 12" style="enable-background:new -291 391 29 12;" xml:space="preserve">
<g id="_x31_.00.0.0-Home">
	<g id="Desktop---1.00.0.0-Home---Highlight-deals-label-2-Copy-2" transform="translate(-260.000000, -926.000000)">
		<g id="Group-4" transform="translate(0.000000, 883.000000)">
			<g id="Page-1" transform="translate(260.000000, 43.000000)">
				<g id="Clip-2">
				</g>
				<defs>
					<filter id="Adobe_OpacityMaskFilter" filterUnits="userSpaceOnUse" x="-291" y="391" width="28.7" height="11.2">
						<feColorMatrix  type="matrix" values="1 0 0 0 0  0 1 0 0 0  0 0 1 0 0  0 0 0 1 0"/>
					</filter>
				</defs>
				<mask maskUnits="userSpaceOnUse" x="-291" y="391" width="28.7" height="11.2" id="mask-2">
					<g class="st0">
						<polygon id="path-1" class="st1" points="-291,402.2 -262.3,402.2 -262.3,391 -291,391 						"/>
					</g>
				</mask>
				<path id="Fill-1" class="st2" d="M-265.6,399.9c-1.2,0.8-5.8,1.2-6.6,0.2c-1-1.2-2.2-5.3-2-6.2c3.1-1.8,7.3-1.8,10.3-0.1
					C-263.6,394.7-264.7,399.2-265.6,399.9 M-281.1,400c-0.8,1-5.4,0.6-6.6-0.2c-1-0.6-2.1-5.2-1.7-6.1c3-1.7,7.2-1.7,10.3,0.1
					C-278.9,394.7-280.1,398.8-281.1,400 M-262.3,394.2c0-0.3,0-1.3-0.7-1.7c-3.5-2-8.2-2-11.8,0c-1,0.3-2.6,0.3-3.6,0
					c-3.6-2-8.4-2-11.8,0c-0.7,0.4-0.7,1.3-0.7,1.7c0,1.8,0.9,5.9,2.4,6.9c0.8,0.5,2.9,1,4.9,1c1.6,0,3.1-0.3,3.8-1.2
					c0.8-1,2.1-5.2,2.1-5.2c0.3-1,1.8-1,2.3,0c0,0,1.2,4.1,2.1,5.2c0.7,0.9,2.2,1.2,3.8,1.2c2,0,4-0.5,4.9-1
					C-263.3,400.1-262.3,396-262.3,394.2"/>
			</g>
		</g>
	</g>
</g>
</svg>
