<?xml version="1.0" encoding="UTF-8"?>
<svg width="36px" height="36px" viewBox="0 0 36 36" version="1.1" xmlns="http://www.w3.org/2000/svg" xmlns:xlink="http://www.w3.org/1999/xlink">
    <!-- Generator: Sketch 51.2 (57519) - http://www.bohemiancoding.com/sketch -->
    <title>icons/invoice</title>
    <desc>Created with Sketch.</desc>
    <defs>
        <path d="M29.6145537,4.65719159 C29.6145537,3.37114364 28.5720059,2.32859579 27.2859579,2.32859579 L8.65719159,2.32859579 C7.37114364,2.32859579 6.32859579,3.37114364 6.32859579,4.65719159 L6.32859579,28.3347207 L7.261615,27.4896645 L10.1216912,31.1586576 L13.5452405,27.6302849 L17.8563959,31.6921459 L21.6658779,27.5662991 L25.4566419,31.2400297 L28.3585209,27.5887658 L29.6145537,28.6301138 L29.6145537,4.65719159 Z M8.40204872,32.7402176 L8.52971515,32.6245872 L8.29615126,32.604369 L6.96651806,30.8986749 L5.36355687,32.3505125 L5.12999298,32.3302943 L5.23589045,32.4661428 L4,33.5855162 L4,4.65719159 C4,2.0850957 6.0850957,5.17052133e-16 8.65719159,0 L27.2859579,0 C29.8580538,-5.17052133e-16 31.9431495,2.0850957 31.9431495,4.65719159 L31.9431495,33.5855162 L30.4953948,32.385216 L28.7023877,30.8986749 L27.2832184,32.6843323 L25.6810688,34.700223 L23.4310802,32.5196991 L21.7584154,30.8986749 L20.216475,32.5686684 L17.9715748,35 L13.6185333,30.8986749 L9.9299243,34.700223 L8.40204872,32.7402176 Z M15.0974103,18.5974118 C15.0834749,19.3917303 15.2925029,20.0188145 15.7245007,20.4786831 C16.1564985,20.9385517 16.6930038,21.231191 17.3340328,21.3566097 L17.3340328,16.9878797 C17.2643558,16.9600089 17.1702931,16.9286547 17.0518421,16.8938162 C16.9333911,16.8589776 16.8044905,16.8276234 16.6651364,16.7997526 C16.1495261,16.6603985 15.6408912,16.4966598 15.1392163,16.3085318 C14.6375415,16.1204037 14.1881312,15.86957 13.7909719,15.5560232 C13.3938126,15.2424765 13.0767868,14.8522908 12.8398847,14.3854544 C12.6029827,13.9186181 12.4845335,13.3368234 12.4845335,12.6400527 C12.4845335,11.9293467 12.6204017,11.3022625 12.8921423,10.7587815 C13.1638828,10.2153004 13.5227143,9.75892246 13.9686475,9.38963402 C14.4145807,9.02034559 14.9301833,8.73467392 15.5154706,8.53261044 C16.1007579,8.33054696 16.7069393,8.20861392 17.3340328,8.16680769 L17.3340328,6.55727559 L18.5673107,6.55727559 L18.5673107,8.16680769 C19.1944042,8.23648475 19.7831666,8.37235298 20.3336154,8.57441647 C20.8840642,8.77647995 21.3683125,9.05518402 21.7863749,9.41053704 C22.2044372,9.76589006 22.5458497,10.2083328 22.8106226,10.7378784 C23.0753954,11.2674241 23.2286826,11.8945083 23.2704889,12.6191497 L20.3022609,12.6191497 C20.2883254,12.0617332 20.1141354,11.5879363 19.7796855,11.1977448 C19.4452356,10.8075532 19.0411147,10.6124604 18.5673107,10.6124604 L18.5673107,14.3122939 C18.7345356,14.3541001 18.9052419,14.3959057 19.0794345,14.437712 C19.2536272,14.4795182 19.4382686,14.5282914 19.6333644,14.5840331 C20.6645849,14.8627413 21.4588915,15.2076376 22.016308,15.6187323 C22.5737245,16.029827 22.984813,16.4583345 23.2495859,16.9042677 C23.5143587,17.3502009 23.6711297,17.7961274 23.7199037,18.2420606 C23.7686776,18.6879938 23.7930642,19.0851471 23.7930642,19.4335324 C23.7930642,19.7401115 23.7164206,20.1268134 23.5631311,20.5936497 C23.4098415,21.060486 23.1346213,21.5168639 22.737462,21.9627971 C22.3403028,22.4087303 21.8072812,22.8058836 21.1383814,23.1542689 C20.4694816,23.5026543 19.6124666,23.7116823 18.5673107,23.7813594 L18.5673107,25.5581156 L17.3340328,25.5581156 L17.3340328,23.7813594 C15.7732666,23.6698761 14.5539363,23.1891115 13.6760053,22.3390514 C12.7980743,21.4889912 12.2894394,20.2417905 12.1500853,18.5974118 L15.0974103,18.5974118 Z M18.5673107,21.3566097 C18.8181481,21.3287389 19.0794332,21.2695143 19.3511737,21.1789341 C19.6229142,21.0883539 19.8667803,20.9594533 20.0827792,20.7922283 C20.2987781,20.6250034 20.4764519,20.4194591 20.6158061,20.1755894 C20.7551602,19.9317197 20.8248362,19.6425642 20.8248362,19.3081143 C20.8248362,18.7646332 20.65413,18.3570285 20.3127124,18.085288 C19.9712948,17.8135474 19.3895,17.5661976 18.5673107,17.343231 L18.5673107,21.3566097 Z M17.3340328,10.6124604 C17.0971308,10.6124604 16.8672,10.6472984 16.6442334,10.7169754 C16.4212667,10.7866525 16.2192063,10.8946503 16.0380459,11.0409722 C15.8568856,11.187294 15.7140497,11.3684516 15.6095341,11.5844505 C15.5050185,11.8004494 15.4527615,12.0547669 15.4527615,12.3474105 C15.4527615,12.8072792 15.5990812,13.1626269 15.8917248,13.4134643 C16.1843685,13.6643017 16.665133,13.8663622 17.3340328,14.0196517 L17.3340328,10.6124604 Z" id="path-1"></path>
    </defs>
    <g id="icons/invoice" stroke="none" stroke-width="1" fill="none" fill-rule="evenodd">
        <mask id="mask-2" fill="white">
            <use xlink:href="#path-1"></use>
        </mask>
        <use id="Rectangle-16" fill="#002F5F" fill-rule="nonzero" xlink:href="#path-1"></use>
    </g>
</svg>