<?xml version="1.0" encoding="utf-8"?>
<!-- Generator: Adobe Illustrator 19.0.0, SVG Export Plug-In . SVG Version: 6.00 Build 0)  -->
<svg version="1.1" id="Layer_1" xmlns="http://www.w3.org/2000/svg" xmlns:xlink="http://www.w3.org/1999/xlink" x="0px" y="0px"
	 width="22px" height="16px" viewBox="3 0 22 16" enable-background="new 3 0 22 16" xml:space="preserve">
<g id="XMLID_1_">
	<path id="XMLID_2_" fill="none" d="M18.7,1.8c0.2,0,0.5,0.2,0.5,0.5v7.6c0,0.3-0.2,0.5-0.5,0.5H9.3c-0.2,0-0.5-0.2-0.5-0.5V2.3
		C8.8,2,9,1.8,9.3,1.8H18.7 M18.7,0H9.3C8,0,7,1,7,2.3v7.6c0,1.3,1,2.3,2.3,2.3h9.5c1.2,0,2.3-1,2.3-2.3V2.3C21,1,20,0,18.7,0
		L18.7,0z"/>
	<path id="XMLID_5_" fill="none" d="M23,16H5c-0.6,0-1-0.4-1-1s0.4-1,1-1h18c0.6,0,1,0.4,1,1S23.6,16,23,16z"/>
</g>
</svg>
