<svg width="40" height="40" xmlns="http://www.w3.org/2000/svg"><path d="M21 26.4l-3.71 6.21a1.05 1.05 0 0 1-1.76.06l-1-1.45a1.04 1.04 0 0 0-.8-.44l-1.9-.1a1.01 1.01 0 0 1-.97-1.04c0-.16.05-.3.13-.44l2.81-4.84.53 1.02a3.08 3.08 0 0 0 3.68 1.47l1.2-.38a4.26 4.26 0 0 1 2.59 0l1.2.38c1.42.46 2.99-.17 3.66-1.47l.57-1.1a4 4 0 0 1 .58-.82l3.45 5.98c.28.48.1 1.1-.4 1.36-.14.08-.3.12-.45.13l-1.9.09c-.32.01-.62.18-.8.44l-1.01 1.46a1.05 1.05 0 0 1-1.75-.04l-3.96-6.47zm-1.72-1.79l-.87.28a2.48 2.48 0 0 1-2.96-1.22L15.1 23a4 4 0 0 0-1.8-1.75l-.77-.38a2.36 2.36 0 0 1-1.2-2.89l.23-.68a4 4 0 0 0 0-2.58l-.23-.68a2.36 2.36 0 0 1 1.2-2.9l.77-.37a4 4 0 0 0 1.8-1.75l.35-.68a2.48 2.48 0 0 1 2.96-1.22l.87.27a4 4 0 0 0 2.44 0l.86-.27c1.16-.37 2.4.14 2.96 1.22l.36.68a4 4 0 0 0 1.8 1.75l.77.38a2.36 2.36 0 0 1 1.2 2.89l-.23.68a4 4 0 0 0 0 2.58l.23.68a2.36 2.36 0 0 1-1.2 2.89l-.77.38a4 4 0 0 0-1.8 1.75l-.36.68a2.48 2.48 0 0 1-2.96 1.22l-.86-.28a4 4 0 0 0-2.44 0zM20.5 21a5.09 5.09 0 0 0 5.17-5c0-2.76-2.32-5-5.17-5a5.09 5.09 0 0 0-5.17 5c0 2.76 2.32 5 5.17 5z" fill="#002F5F" fill-rule="evenodd"/></svg>