<?xml version="1.0" encoding="UTF-8"?>
<svg width="36px" height="36px" viewBox="0 0 36 36" version="1.1" xmlns="http://www.w3.org/2000/svg" xmlns:xlink="http://www.w3.org/1999/xlink">
    <!-- Generator: Sketch 51 (57462) - http://www.bohemiancoding.com/sketch -->
    <title>icons/search-line</title>
    <desc>Created with Sketch.</desc>
    <defs>
        <path d="M16,29 C8.82029825,29 3,23.1797017 3,16 C3,8.82029825 8.82029825,3 16,3 C23.1797017,3 29,8.82029825 29,16 C29,23.1797017 23.1797017,29 16,29 Z M16,27 C22.0751322,27 27,22.0751322 27,16 C27,9.92486775 22.0751322,5 16,5 C9.92486775,5 5,9.92486775 5,16 C5,22.0751322 9.92486775,27 16,27 Z M31.431545,28.6031179 L25.5355339,22.7071068 L26.9497475,21.2928932 L32.8457586,27.1889044 C33.7383539,28.0814996 33.9619006,29.452313 33.1213203,30.2928932 L30.2928932,33.1213203 C29.452313,33.9619006 28.0814996,33.7383539 27.1889044,32.8457586 L21.2928932,26.9497475 L22.7071068,25.5355339 L28.6031179,31.431545 C28.7187834,31.5472105 28.8476877,31.6178174 28.9482663,31.6375202 L31.6375202,28.9482663 C31.6178174,28.8476877 31.5472105,28.7187834 31.431545,28.6031179 Z M28.9546833,31.638715 C28.9561013,31.6389651 28.9575134,31.6392048 28.9589194,31.639434 C28.961599,31.639871 28.9626305,31.6405445 28.9622328,31.6416236 L28.9546833,31.638715 Z" id="path-1"></path>
    </defs>
    <g id="icons/search-line" stroke="none" stroke-width="1" fill="none" fill-rule="evenodd">
        <mask id="mask-2" fill="white">
            <use xlink:href="#path-1"></use>
        </mask>
        <use id="Oval-4-Copy" fill="#002F5F" fill-rule="nonzero" xlink:href="#path-1"></use>
    </g>
</svg>