<?xml version="1.0" encoding="utf-8"?>
<!-- Generator: Adobe Illustrator 19.1.0, SVG Export Plug-In . SVG Version: 6.00 Build 0)  -->
<svg version="1.1" id="Layer_1" xmlns="http://www.w3.org/2000/svg" xmlns:xlink="http://www.w3.org/1999/xlink" x="0px" y="0px"
	 viewBox="-287.2 380.6 34.2 32.9" style="enable-background:new -287.2 380.6 34.2 32.9;" xml:space="preserve">
<path d="M-269.6,387.7v0.4c0.7,0.1,0.9,0.2,0.9,0.7v11.6c0,0.5-0.2,0.6-0.9,0.7v0.4h4.8v2.8c0,2.6-1.1,3.8-3.6,3.8
	c-2.7,0-3.8-1.4-3.8-4.7v-2.3c1.2-0.8,2.1-1.9,2.5-3.3l-1-0.4c-0.6,1.9-2.7,3.2-4.3,3.2c-2.6,0-4-2-4-5.8c0-3.9,1.3-5.9,3.6-5.9
	c1.8,0,3.3,1,4.3,3.7h0.7v-4.8h-0.6c-0.1,0.2-0.3,0.4-0.6,0.4c-0.2,0-0.4,0-0.8-0.2c-1.2-0.5-2.5-0.8-3.9-0.8
	c-3.8,0-6.8,3.1-6.8,7.5c0,4.5,3,7.6,6.9,7.6c0.3,0,0.5,0,0.8,0v2.1c0,1.5,0.3,2.5,1,3.5c1,1.3,2.8,2,5.2,2c2.2,0,3.8-0.8,4.7-2
	c0.8-1.1,0.8-2.4,0.8-3.9V396h-1.2v4.2c-0.7-0.1-0.8-0.3-0.8-1.1v-4h1.4c2,0,3.1,0.8,3.1,2.6c0,1.4-0.6,2.1-2,2.4v1.3
	c4.1,0,5.7-1.4,5.7-3.5c0-2.1-1-3.2-3.4-3.7c2-0.4,2.8-1.4,2.8-3.3c0-2.2-2.1-3.4-6.2-3.4C-264.1,387.7-269.6,387.7-269.6,387.7z
	 M-261.5,391.3c0,2-0.7,2.6-2.8,2.6h-1.3v-4c0-0.9,0.1-1.1,1.3-1.1C-262.2,388.9-261.5,389.4-261.5,391.3 M-275,400
	c0.9,0,2-0.5,2.8-1.2v-1.7c0-0.5,0.2-0.5,0.9-0.7V396h-4.9v0.4c0.7,0.1,0.9,0.2,0.9,0.7v3C-275.2,400-275.1,400-275,400
	 M-269.9,380.6h-0.3c-10,0-16.9,3.9-16.9,15.9v1c0,12.1,7,15.9,16.9,15.9h0.3c10,0,16.9-3.9,16.9-15.9v-1
	C-253,384.4-260,380.6-269.9,380.6 M-255.7,397.5c0,10.5-6.4,14.8-14.2,14.8h-0.3c-7.7,0-14.2-4.3-14.2-14.8v-1
	c0-10.5,6.4-14.8,14.2-14.8h0.3c7.7,0,14.2,4.3,14.2,14.8V397.5z"/>
</svg>
