<svg xmlns="http://www.w3.org/2000/svg" width="40" height="40"><path d="M25.1 11.3c0-1.3-1-2.3-2.3-2.3H4.3C3 9 2 10 2 11.3v13.8c0 .6.3 1.2.7 1.6 1.7-3.5 5.9-4.9 9.4-3.1 1.6.8 2.8 2.2 3.4 3.8h3.1c1-2.7 3.6-4.5 6.5-4.5V11.3zm0 13.9c-2.5 0-4.6 2.1-4.6 4.6s2 4.6 4.6 4.6 4.6-2.1 4.6-4.6-2-4.6-4.6-4.6zm0 6.9c-1.3 0-2.3-1.1-2.3-2.3 0-1.3 1-2.3 2.3-2.3s2.3 1 2.3 2.3-1 2.3-2.3 2.3zm13.5-4.9l-1.2-7.3c-.4-2.3-2.3-3.9-4.6-3.9h-3c-1.3 0-2.3 1-2.3 2.3v5c2.7.9 4.6 3.6 4.6 6.5l4.2.1h.4c1.3-.3 2.1-1.4 1.9-2.7zm-4.3-5.5c0 .6-.5 1.1-1.2 1.1h-2.3c-.6 0-1.2-.5-1.2-1.1v-2.3c.1-.7.7-1.2 1.3-1.2H32c1.3 0 2.3 1 2.3 2.3v1.2zM8.9 25.2c-2.5 0-4.6 2.1-4.6 4.6s2 4.6 4.6 4.6 4.6-2.1 4.6-4.6-2-4.6-4.6-4.6zm0 6.9C7.7 32 6.7 31 6.6 29.8c0-1.3 1-2.3 2.3-2.3s2.3 1 2.3 2.3-1 2.3-2.3 2.3z" fill="#002f5f"/></svg>
