<svg width="112" height="112" xmlns="http://www.w3.org/2000/svg" xmlns:xlink="http://www.w3.org/1999/xlink"><defs><path d="M15.75 37.63v4.68a4.69 4.69 0 1 1-9.38 0v-6.25H9.5v6.25a1.56 1.56 0 0 0 3.13 0V34.5h34.36v7.81c0 2.6-2.1 4.69-4.7 4.69h-3.47v-3.13h3.48c.86 0 1.56-.7 1.56-1.56v-4.69H15.75zm0-25V9.5h15.63v3.13H15.74zm0 6.24v-3.12h15.63v3.13H15.74zm0 6.25V22h15.63v3.13H15.74zM6.37 4.82a1.56 1.56 0 0 0-3.12 0V9.5h3.13V4.81zM4.81.11c2.6 0 4.69 2.1 4.69 4.7v7.8H.12v-7.8c0-2.6 2.1-4.7 4.7-4.7zm0 3.13V.12h31.25c2.6 0 4.69 2.1 4.69 4.7v31.47h-3.13V4.8c0-.86-.7-1.56-1.56-1.56H4.81zM39.2 43.88V47H11.27v-3.13h27.92zM9.5 37.1H6.37V11.78H9.5V37.1z" id="a"/></defs><g fill="none" fill-rule="evenodd"><ellipse fill="#F8F8F8" cx="56" cy="56" rx="56" ry="56"/><use fill="#F4D539" fill-rule="nonzero" xlink:href="#a" transform="translate(33 33)"/></g></svg>