<svg width="112" height="112" xmlns="http://www.w3.org/2000/svg" xmlns:xlink="http://www.w3.org/1999/xlink"><defs><path d="M4.69 3.5c-.87 0-1.56.7-1.56 1.56v21.88c0 .86.7 1.56 1.56 1.56h37.5c.86 0 1.56-.7 1.56-1.56V5.06c0-.86-.7-1.56-1.56-1.56H4.69zm0-3.13h37.5c2.59 0 4.69 2.1 4.69 4.7v21.87c0 2.59-2.1 4.68-4.7 4.68H4.69A4.69 4.69 0 0 1 0 26.95V5.06C0 2.47 2.1.38 4.69.38zM15.45 13.8L.8 3.4l2.3-2.2 19.4 13.76c.54.38 1.26.38 1.8 0L43.57 1.59l2.8 1.84-14.96 10.4 13.9 13.84-2.4 2.4-14.3-14.3-2.54 1.77a4.69 4.69 0 0 1-5.38-.02l-2.44-1.73L3.96 30.06l-2.4-2.4 13.9-13.86z" id="a"/></defs><g fill="none" fill-rule="evenodd"><circle fill="#F8F8F8" cx="56" cy="56" r="56"/><use fill="#F4D539" fill-rule="nonzero" xlink:href="#a" transform="translate(33 40)"/></g></svg>