<svg width="112" height="112" xmlns="http://www.w3.org/2000/svg" xmlns:xlink="http://www.w3.org/1999/xlink"><defs><path d="M37.85 63.23a5.73 5.73 0 0 0 5.73-5.73v-1.56h25v1.56a5.73 5.73 0 0 0 11.46 0v-1.56c0-4.32-3.5-7.81-7.81-7.81h-32.3a7.81 7.81 0 0 0-7.8 7.8v1.57a5.73 5.73 0 0 0 5.72 5.73zm0 3.12A8.85 8.85 0 0 1 29 57.5v-1.56C29 49.9 33.9 45 39.94 45h32.29c6.04 0 10.93 4.9 10.93 10.94v1.56a8.85 8.85 0 0 1-17.57 1.56H46.57a8.86 8.86 0 0 1-8.72 7.3z" id="a"/></defs><g fill="none" fill-rule="evenodd"><circle fill="#F8F8F8" cx="56" cy="56" r="56"/><use fill="#F4D539" fill-rule="nonzero" transform="rotate(-135 56.08 55.68)" xlink:href="#a"/></g></svg>