<?xml version="1.0" encoding="UTF-8"?>
<svg fill="#000000" width="100pt" height="100pt" version="1.1" viewBox="0 0 100 100" xmlns="http://www.w3.org/2000/svg">
 <path d="m8.0117 10c-1.1055 0-2 0.89453-2 2s0.89453 2 2 2h10.375l10.531 49.812c-0.10547 1.1406 0.94922 2.2461 2.0938 2.1875h50c1.0547 0.015625 2.0273-0.94141 2.0273-2s-0.97266-2.0156-2.0273-2h-48.375l-1.6875-8h54.062c0.89453-0.011719 1.7422-0.6875 1.9375-1.5625l7-30c0.26172-1.1602-0.74609-2.4297-1.9375-2.4375h-68.25l-1.7812-8.4375c-0.19922-0.88281-1.0625-1.5703-1.9688-1.5625zm16.594 14h64.906l-6.0938 26h-53.312zm16.406 48c-4.9453 0-9 4.0547-9 9s4.0547 9 9 9c4.9453 0 9-4.0547 9-9s-4.0547-9-9-9zm30 0c-4.9453 0-9 4.0547-9 9s4.0547 9 9 9c4.9453 0 9-4.0547 9-9s-4.0547-9-9-9zm-30 4c2.7852 0 5 2.2148 5 5s-2.2148 5-5 5c-2.7852 0-5-2.2148-5-5s2.2148-5 5-5zm30 0c2.7852 0 5 2.2148 5 5s-2.2148 5-5 5c-2.7852 0-5-2.2148-5-5s2.2148-5 5-5z"/>
</svg>
