<?xml version="1.0" encoding="UTF-8"?>
<svg width="26px" height="25px" viewBox="0 0 26 25" version="1.1" xmlns="http://www.w3.org/2000/svg" xmlns:xlink="http://www.w3.org/1999/xlink">
    <title>Star</title>
    <g id="Planograms" stroke="none" stroke-width="1" fill="none" fill-rule="evenodd">
        <g id="R2-/-ALB-/-Planograms-/-customer-View-V1-/-TM-View" transform="translate(-1163.000000, -6.000000)" fill="#F99D33" stroke="#F99D33" stroke-width="0.93">
            <g id="Group-2" transform="translate(0.000000, 1.000000)">
                <path d="M1176.20402,6.31557783 L1180.37252,12.4520975 C1180.56521,12.7636919 1180.87275,12.9869747 1181.2287,13.0737123 L1181.2287,13.0737123 L1188.00418,14.724761 C1188.12893,14.7551615 1188.22956,14.8332512 1188.29139,14.9349296 C1188.33854,15.0124654 1188.36314,15.103718 1188.35868,15.1980006 L1188.35868,15.1980006 L1183.73948,20.7906526 C1183.50218,21.070271 1183.38454,21.4320899 1183.41201,21.7977998 L1183.41201,21.7977998 L1183.93391,28.7449657 C1183.94353,28.8730111 1183.90034,28.9928334 1183.82273,29.0830492 C1183.76351,29.1518915 1183.68425,29.2034939 1183.59312,29.228355 L1183.59312,29.228355 L1176.83945,26.5665894 C1176.50063,26.4278237 1176.12084,26.4278237 1175.78202,26.5665894 L1175.78202,26.5665894 L1169.32749,29.2101088 C1169.20866,29.2587754 1169.08136,29.2546708 1168.9716,29.2086929 C1168.88784,29.1736075 1168.81429,29.114139 1168.76252,29.0351298 L1168.76252,29.0351298 L1169.20946,21.7977998 C1169.23693,21.4320899 1169.11929,21.070271 1168.88198,20.7906526 L1168.88198,20.7906526 L1164.37284,15.4774222 C1164.28976,15.3795199 1164.25422,15.2572087 1164.26393,15.1386016 C1164.27133,15.0481573 1164.30505,14.9598669 1164.36405,14.8861961 L1164.36405,14.8861961 L1171.39277,13.0737123 C1171.74871,12.9869747 1172.05625,12.7636919 1172.24895,12.4520975 L1172.24895,12.4520975 L1175.91525,6.52359322 C1175.98279,6.41438319 1176.0882,6.34288706 1176.20402,6.31557783 L1176.20402,6.31557783 Z" id="Star"></path>
            </g>
        </g>
    </g>
</svg>