<svg xmlns="http://www.w3.org/2000/svg" viewBox="0 0 44.83 37"><defs><style>.cls-1,.cls-2{fill:none;stroke:#000;stroke-miterlimit:10;}.cls-1{stroke-width:3px;}.cls-2{stroke-width:2px;}.cls-3{fill-rule:evenodd;}</style></defs><title>Asset 6</title><g id="Layer_2" data-name="Layer 2"><g id="Icon-delivered"><path class="cls-1" d="M30.83,30.23H1.5v-13h35V23"/><circle class="cls-2" cx="37.33" cy="29.5" r="6.5"/><path class="cls-3" d="M40.17,31.25l-2-2,2.05-2a.2.2,0,0,0,0-.32l-.59-.57a.22.22,0,0,0-.16-.08s-.08,0-.14.08l-2.05,2-2-2a.19.19,0,0,0-.13-.08.22.22,0,0,0-.17.08l-.56.57a.2.2,0,0,0,0,.32l2,2-2,2.05s-.06.07-.06.14a.21.21,0,0,0,.06.16l.56.59a.22.22,0,0,0,.17.06.21.21,0,0,0,.16-.06l2-2,2.05,2c.06,0,.1.08.14.08a.27.27,0,0,0,.16-.08l.56-.57a.18.18,0,0,0,.09-.16A.21.21,0,0,0,40.17,31.25Z"/><rect x="14.5" y="22" width="9" height="3"/><rect x="4.5" y="6" width="8" height="10"/><rect x="6.5" width="4" height="11"/><rect x="15" y="6" width="8" height="10"/><rect x="17" width="4" height="11"/><rect x="25.5" y="6" width="8" height="10"/><rect x="27.5" width="4" height="11"/></g></g></svg>