<svg id="Icon-delivered" xmlns="http://www.w3.org/2000/svg" viewBox="0 0 20 20"><defs><style>.cls-1,.cls-2{fill:#f0242d;}.cls-1{fill-rule:evenodd;}.cls-3{fill:#fff;}</style></defs><title>Artboard 20 copy</title><path class="cls-1" d="M10,0a9.84,9.84,0,0,1,5.07,1.37,9.5,9.5,0,0,1,3.56,3.56A9.84,9.84,0,0,1,20,10a9.84,9.84,0,0,1-1.37,5.07,9.5,9.5,0,0,1-3.56,3.56A9.84,9.84,0,0,1,10,20a9.84,9.84,0,0,1-5.07-1.37,9.7,9.7,0,0,1-3.56-3.58A10,10,0,0,1,1.37,5,10,10,0,0,1,10,0Z"/><path class="cls-2" d="M10,19.5A9.5,9.5,0,0,1,.5,10,9.36,9.36,0,0,1,1.8,5.21,9.45,9.45,0,0,1,5.21,1.8a9.53,9.53,0,0,1,9.61,0A9,9,0,0,1,18.2,5.18a9.59,9.59,0,0,1,0,9.64,9,9,0,0,1-3.38,3.38A9.42,9.42,0,0,1,10,19.5Z"/><path class="cls-3" d="M10,1a8.81,8.81,0,0,1,4.57,1.24,8.52,8.52,0,0,1,3.2,3.19A8.9,8.9,0,0,1,19,10a8.81,8.81,0,0,1-1.24,4.57,8.52,8.52,0,0,1-3.19,3.2A8.9,8.9,0,0,1,10,19a8.9,8.9,0,0,1-4.57-1.23,8.77,8.77,0,0,1-3.2-3.23,9,9,0,0,1,0-9.08A8.93,8.93,0,0,1,5.46,2.23,8.82,8.82,0,0,1,10,1m0-1A10,10,0,0,0,1.37,5a10,10,0,0,0,0,10.1,9.7,9.7,0,0,0,3.56,3.58A9.84,9.84,0,0,0,10,20a9.84,9.84,0,0,0,5.07-1.37,9.5,9.5,0,0,0,3.56-3.56A9.84,9.84,0,0,0,20,10a9.84,9.84,0,0,0-1.37-5.07,9.5,9.5,0,0,0-3.56-3.56A9.84,9.84,0,0,0,10,0Z"/><rect class="cls-3" x="9.01" y="4.98" width="1.97" height="6.01"/><rect class="cls-3" x="9.01" y="13" width="1.97" height="2.02"/></svg>