<svg xmlns="http://www.w3.org/2000/svg" viewBox="0 0 12.02 14.63"><defs><style>.cls-1{fill-rule:evenodd;}</style></defs><title>Asset 7</title><g id="Layer_2" data-name="Layer 2"><g id="Icon-delivered"><path class="cls-1" d="M6,14.63A1.46,1.46,0,0,1,5,14.2a1.39,1.39,0,0,1-.45-1h3a1.39,1.39,0,0,1-.45,1A1.46,1.46,0,0,1,6,14.63Zm4.5-4.5L12,11.65v.73H0v-.73l1.51-1.52V6.41a5.26,5.26,0,0,1,.88-3A4.1,4.1,0,0,1,4.9,1.66V1.13a1.1,1.1,0,0,1,.32-.8A1.07,1.07,0,0,1,6,0a1.09,1.09,0,0,1,.8.33,1.08,1.08,0,0,1,.34.8v.53A4.11,4.11,0,0,1,9.63,3.38a5.2,5.2,0,0,1,.88,3ZM9,10.91V6.41A4,4,0,0,0,8.64,4.7,2.85,2.85,0,0,0,6,3a2.79,2.79,0,0,0-1.6.47,2.85,2.85,0,0,0-1,1.21A4,4,0,0,0,3,6.41v4.5Z"/></g></g></svg>