<svg id="Icon-delivered" xmlns="http://www.w3.org/2000/svg" width="394" height="64"><style>.st1{fill:none;stroke:#fff;stroke-width:1.79;stroke-miterlimit:10}</style><ellipse class="st1" cx="42" cy="42.7" rx="3" ry="3.2"/><ellipse class="st1" cx="63.2" cy="42.7" rx="3" ry="3.2"/><path d="M66.1 29c-.5 0-.9.4-.9.9v3.5c0 .5.4.9.9.9h5.2c.5-.1.8-.6.7-1l-.6-3.6c-.1-.4-.4-.7-.9-.7h-4.4zm4.1 13.7c-.4-3.6-3.4-6.3-7-6.3-.3 0-.7 0-1 .1v-6.9c0-1.5 1.2-2.7 2.7-2.7h5.3c1.2 0 2.3.8 2.6 2l2.7 10.4c.4 1.4-.5 2.9-1.9 3.3-.2.1-.4.1-.7.1h-2.7zm-13.3-1.8h-8.5c-1.4-3.5-5.4-5.3-9-3.9-1.8.7-3.2 2.1-3.9 3.9h-.3c-1.9 0-3.4-1.5-3.4-3.4v-16c0-1.9 1.5-3.4 3.4-3.4h21.6c1.9 0 3.4 1.5 3.4 3.4v15.7c-1.5.9-2.7 2.1-3.3 3.7zm-36.4-16h9v2.5h-9zm2 9h7v2.5h-7zm-6-4.5h13v2.5h-13zM88 25.2v-2h14.1v2h-5.9v15.7h-2.4V25.2H88zm25.1-2c1.7 0 3 .4 4 1.2.9.8 1.4 2 1.4 3.4 0 1.1-.2 2-.7 2.8-.5.8-1.3 1.4-2.3 1.7.5.1.9.3 1.3.5s.6.5.8.8c.2.3.3.7.4 1.1.1.4.2.8.2 1.2 0 .4.1.9.1 1.3s.1.9.1 1.3l.3 1.2c.1.4.3.7.6 1h-2.6c-.2-.2-.3-.4-.3-.7-.1-.3-.1-.7-.1-1.1v-1.2c0-.4-.1-.9-.1-1.3-.1-.4-.1-.8-.2-1.2-.1-.4-.3-.7-.5-1-.2-.3-.5-.5-.8-.7-.3-.2-.8-.3-1.4-.3h-5.7v7.6h-2.4V23.2h7.9zm.5 8c.5-.1.9-.2 1.3-.5.4-.2.7-.6.9-1 .2-.4.3-.9.3-1.6 0-.9-.2-1.6-.7-2.2-.5-.6-1.3-.8-2.4-.8h-5.8v6.2h4.9c.5 0 1 0 1.5-.1zm16.2-8l6.9 17.7h-2.6l-1.9-5.3h-7.5l-2 5.3h-2.4l6.9-17.7h2.6zm1.6 10.3l-2.9-8.2-3 8.2h5.9zm18.3-7.8c-.9-.6-2-.9-3.2-.9-1.1 0-2 .2-2.7.6-.8.4-1.4.9-1.9 1.6-.5.7-.8 1.4-1.1 2.3-.2.9-.3 1.8-.3 2.7 0 1 .1 2 .3 2.9.2.9.6 1.7 1.1 2.4.5.7 1.1 1.2 1.9 1.6.8.4 1.7.6 2.7.6.8 0 1.5-.1 2.1-.4.6-.3 1.1-.6 1.6-1.1s.8-1 1-1.6c.2-.6.4-1.3.4-2h2.4c-.2 2.2-1 4-2.3 5.2-1.3 1.2-3.1 1.9-5.3 1.9-1.4 0-2.6-.2-3.6-.7-1-.5-1.9-1.1-2.6-1.9-.7-.8-1.2-1.8-1.5-2.9-.3-1.1-.5-2.3-.5-3.6s.2-2.5.5-3.6c.4-1.1.9-2.1 1.6-3 .7-.8 1.6-1.5 2.6-2s2.2-.7 3.6-.7c.9 0 1.8.1 2.6.4.8.2 1.6.6 2.2 1.1.6.5 1.2 1.1 1.6 1.8s.7 1.5.8 2.5h-2.4c-.1-1.7-.7-2.6-1.6-3.2zm10.2-2.5V32l9-8.8h3l-7.5 7.1 7.8 10.6h-3l-6.4-8.9-2.9 2.7v6.2h-2.4V23.2h2.4zm29.6 17.7h-2.4v-7.2l-6.8-10.5h2.8l5.3 8.4 5.2-8.4h2.7l-6.8 10.5v7.2zm8.9-12.4c.4-1.1.9-2.1 1.6-3 .7-.9 1.6-1.5 2.6-2.1 1.1-.5 2.3-.8 3.7-.8 1.4 0 2.6.3 3.7.8s1.9 1.2 2.7 2.1c.7.9 1.2 1.8 1.6 3 .4 1.1.5 2.3.5 3.5s-.2 2.4-.5 3.5c-.4 1.1-.9 2.1-1.6 3s-1.6 1.5-2.7 2-2.3.8-3.7.8c-1.4 0-2.6-.3-3.7-.8s-1.9-1.2-2.6-2c-.7-.9-1.2-1.8-1.6-3-.4-1.1-.5-2.3-.5-3.5s.1-2.4.5-3.5zm2.1 6.2c.2.9.6 1.6 1.1 2.3.5.7 1.1 1.2 1.9 1.7.8.4 1.7.6 2.8.6 1.1 0 2-.2 2.8-.6.8-.4 1.4-1 1.9-1.7s.9-1.5 1.1-2.3c.2-.9.3-1.7.3-2.6s-.1-1.8-.3-2.6c-.2-.9-.6-1.6-1.1-2.3-.5-.7-1.1-1.3-1.9-1.7-.8-.4-1.7-.6-2.8-.6-1.1 0-2 .2-2.8.6-.8.4-1.4 1-1.9 1.7s-.9 1.5-1.1 2.3c-.2.9-.3 1.7-.3 2.6s.1 1.7.3 2.6zm30.1 4.9c-1.2 1.1-2.9 1.7-5.2 1.7-2.3 0-4.1-.5-5.3-1.6-1.3-1.1-1.9-2.8-1.9-5.2V23.2h2.4v11.3c0 1.6.4 2.8 1.3 3.6.8.8 2.1 1.2 3.6 1.2s2.6-.4 3.4-1.2 1.2-2 1.2-3.6V23.2h2.4v11.3c-.1 2.2-.7 3.9-1.9 5.1zm14.5-16.4c1.7 0 3 .4 4 1.2.9.8 1.4 2 1.4 3.4 0 1.1-.2 2-.7 2.8-.5.8-1.3 1.4-2.3 1.7.5.1.9.3 1.3.5s.6.5.8.8c.2.3.3.7.4 1.1s.2.8.2 1.2c0 .4.1.9.1 1.3s.1.9.1 1.3l.3 1.2c.1.4.3.7.6 1h-2.6c-.2-.2-.3-.4-.3-.7-.1-.3-.1-.7-.1-1.1v-1.2c0-.4-.1-.9-.1-1.3-.1-.4-.1-.8-.2-1.2-.1-.4-.3-.7-.5-1-.2-.3-.5-.5-.8-.7-.3-.2-.8-.3-1.4-.3h-5.7v7.6h-2.4V23.2h7.9zm.5 8c.5-.1.9-.2 1.3-.5.4-.2.7-.6.9-1 .2-.4.3-.9.3-1.6 0-.9-.2-1.6-.7-2.2-.5-.6-1.3-.8-2.4-.8h-5.8v6.2h4.9c.5 0 1 0 1.5-.1zm22.3-8c2.7 0 4.8.7 6.3 2.1 1.5 1.4 2.2 3.5 2.2 6.3 0 1.5-.2 2.8-.5 4s-.8 2.1-1.5 2.9c-.7.8-1.6 1.4-2.7 1.8-1.1.4-2.3.6-3.8.6h-6.1V23.2h6.1zm.2 15.7c.3 0 .6 0 1-.1s.8-.1 1.3-.3c.4-.2.9-.4 1.3-.7s.8-.7 1.2-1.2c.3-.5.6-1.2.9-1.9.2-.8.3-1.7.3-2.8 0-1.1-.1-2-.3-2.8-.2-.8-.5-1.5-1-2.1-.5-.6-1.1-1-1.8-1.3-.7-.3-1.7-.5-2.7-.5h-4v13.7h3.8zm24-15.7v2h-9.9v5.6h9.2v2h-9.2v6.1h9.9v2h-12.3V23.2h12.3zm5.9 0v15.7h9.4v2h-11.7V23.2h2.3zm14.5 0v17.7h-2.4V23.2h2.4zm8.9 17.7l-6.2-17.7h2.5l5.1 15.3 5.1-15.3h2.5l-6.3 17.7h-2.7zm23.7-17.7v2h-9.9v5.6h9.2v2h-9.2v6.1h9.9v2h-12.3V23.2h12.3zm11.8 0c1.7 0 3 .4 4 1.2.9.8 1.4 2 1.4 3.4 0 1.1-.2 2-.7 2.8-.5.8-1.3 1.4-2.3 1.7.5.1.9.3 1.3.5s.6.5.8.8c.2.3.3.7.4 1.1s.2.8.2 1.2c0 .4.1.9.1 1.3s.1.9.1 1.3l.3 1.2c.1.4.3.7.6 1h-2.6c-.2-.2-.3-.4-.3-.7-.1-.3-.1-.7-.1-1.1v-1.2c0-.4-.1-.9-.1-1.3-.1-.4-.1-.8-.2-1.2-.1-.4-.3-.7-.5-1-.2-.3-.5-.5-.8-.7-.3-.2-.8-.3-1.4-.3h-5.7v7.6H349V23.2h7.9zm.5 8c.5-.1.9-.2 1.3-.5.4-.2.7-.6.9-1 .2-.4.3-.9.3-1.6 0-.9-.2-1.6-.7-2.2-.5-.6-1.3-.8-2.4-.8H351v6.2h4.9c.5 0 1 0 1.5-.1zm15.2 9.7h-2.4v-7.2l-6.8-10.5h2.8l5.3 8.4 5.2-8.4h2.7l-6.8 10.5v7.2z" fill="#fff"/></svg>