<svg width="36" height="36" xmlns="http://www.w3.org/2000/svg" xmlns:xlink="http://www.w3.org/1999/xlink">
    <defs>
        <path d="M4.2 10.94h28.6V8.75a2.2 2.2 0 0 0-2.2-2.19h-3.43V4.38h3.43c2.43 0 4.4 1.95 4.4 4.37v21.88A4.39 4.39 0 0 1 30.6 35H6.4A4.39 4.39 0 0 1 2 30.62V8.75a4.39 4.39 0 0 1 4.4-4.38h3.35v2.2H6.4a2.2 2.2 0 0 0-2.2 2.18v2.19zm0 2.19v17.5c0 1.2.98 2.18 2.2 2.18h24.2a2.2 2.2 0 0 0 2.2-2.19v-17.5H4.2zM13 4.37h11v2.2H13v-2.2zM25.1 2.2c-.6 0-1.1.49-1.1 1.1v2.18c0 .6.5 1.1 1.1 1.1.6 0 1.1-.5 1.1-1.1V3.28c0-.6-.5-1.1-1.1-1.1zm0-2.19a3.3 3.3 0 0 1 3.3 3.28v2.19a3.3 3.3 0 0 1-3.3 3.28 3.3 3.3 0 0 1-3.3-3.28V3.28A3.3 3.3 0 0 1 25.1 0zM11.9 2.19c-.6 0-1.1.49-1.1 1.1v2.18c0 .6.5 1.1 1.1 1.1.6 0 1.1-.5 1.1-1.1V3.28c0-.6-.5-1.1-1.1-1.1zm0-2.19a3.3 3.3 0 0 1 3.3 3.28v2.19a3.3 3.3 0 0 1-3.3 3.28 3.3 3.3 0 0 1-3.3-3.28V3.28A3.3 3.3 0 0 1 11.9 0zm14.3 26.25v2.19h2.2v-2.19h-2.2zm0-2.19h2.2c1.22 0 2.2.98 2.2 2.19v2.19a2.2 2.2 0 0 1-2.2 2.18h-2.2a2.2 2.2 0 0 1-2.2-2.18v-2.19c0-1.2.98-2.19 2.2-2.19zm0-6.56v2.19h2.2V17.5h-2.2zm0-2.19h2.2c1.22 0 2.2.98 2.2 2.19v2.19a2.2 2.2 0 0 1-2.2 2.18h-2.2A2.2 2.2 0 0 1 24 19.7V17.5c0-1.2.98-2.19 2.2-2.19zm-8.8 10.94v2.19h2.2v-2.19h-2.2zm0-2.19h2.2c1.22 0 2.2.98 2.2 2.19v2.19a2.2 2.2 0 0 1-2.2 2.18h-2.2a2.2 2.2 0 0 1-2.2-2.18v-2.19c0-1.2.98-2.19 2.2-2.19zm0-6.56v2.19h2.2V17.5h-2.2zm0-2.19h2.2c1.22 0 2.2.98 2.2 2.19v2.19a2.2 2.2 0 0 1-2.2 2.18h-2.2a2.2 2.2 0 0 1-2.2-2.18V17.5c0-1.2.98-2.19 2.2-2.19zM8.6 26.25v2.19h2.2v-2.19H8.6zm0-2.19h2.2c1.22 0 2.2.98 2.2 2.19v2.19a2.2 2.2 0 0 1-2.2 2.18H8.6a2.2 2.2 0 0 1-2.2-2.18v-2.19c0-1.2.98-2.19 2.2-2.19zm0-6.56v2.19h2.2V17.5H8.6zm0-2.19h2.2c1.22 0 2.2.98 2.2 2.19v2.19a2.2 2.2 0 0 1-2.2 2.18H8.6a2.2 2.2 0 0 1-2.2-2.18V17.5c0-1.2.98-2.19 2.2-2.19z"
              id="a"/>
    </defs>
    <use fill="#002F5F" fill-rule="nonzero" xlink:href="#a"/>
</svg>