<svg width="36" height="36" xmlns="http://www.w3.org/2000/svg" xmlns:xlink="http://www.w3.org/1999/xlink">
    <defs>
        <path d="M15.42 19.57c0 .64.16 1.15.51 1.52.35.37.78.61 1.3.71v-3.54a2.67 2.67 0 0 0-.54-.15 13.7 13.7 0 0 1-1.23-.4c-.41-.15-.77-.35-1.1-.6a2.81 2.81 0 0 1-.77-.95 3.1 3.1 0 0 1-.28-1.42 3.36 3.36 0 0 1 1.2-2.63c.36-.3.78-.53 1.25-.7.47-.16.97-.26 1.47-.3v-1.3h1v1.3c.51.07.99.18 1.43.34.45.16.84.39 1.18.68.34.28.61.64.83 1.07.21.43.34.94.37 1.53h-2.4a1.78 1.78 0 0 0-.43-1.16c-.27-.31-.6-.47-.98-.47v3a45.28 45.28 0 0 0 .87.22c.83.22 1.47.5 1.93.83.45.34.78.69 1 1.05.2.36.34.72.38 1.08.04.36.06.68.06.96 0 .25-.07.57-.2.94-.12.38-.34.75-.66 1.11-.32.36-.75.69-1.3.97-.54.28-1.23.45-2.08.5v1.45h-1v-1.44a4.57 4.57 0 0 1-2.96-1.17 4.6 4.6 0 0 1-1.24-3.03h2.4zm2.81 2.23c.2-.02.42-.07.64-.14.22-.07.42-.18.59-.31.17-.14.32-.3.43-.5.11-.2.17-.44.17-.7 0-.45-.14-.78-.41-1a4.09 4.09 0 0 0-1.42-.6v3.25zm-1-8.7c-.19 0-.37.03-.56.08-.18.06-.34.15-.49.27a1.27 1.27 0 0 0-.47 1.06c0 .37.12.66.36.86.23.2.62.37 1.16.49V13.1zm.52 21.9a17.25 17.25 0 1 1 0-34.5 17.25 17.25 0 0 1 0 34.5zm0-2.3a14.95 14.95 0 1 0 0-29.9 14.95 14.95 0 0 0 0 29.9zm0-2.3a12.65 12.65 0 1 1 0-25.3 12.65 12.65 0 0 1 0 25.3zm0-2.3a10.35 10.35 0 1 0 0-20.7 10.35 10.35 0 0 0 0 20.7z"
              id="a"/>
    </defs>
    <use fill="#002F5F" fill-rule="nonzero" xlink:href="#a"/>
</svg>