<svg width="36" height="36" xmlns="http://www.w3.org/2000/svg" xmlns:xlink="http://www.w3.org/1999/xlink">
    <defs>
        <path d="M4.4 9.3c-.63 0-1.13.51-1.13 1.15v16.1c0 .64.5 1.15 1.13 1.15h27.2c.63 0 1.13-.51 1.13-1.15v-16.1c0-.64-.5-1.15-1.13-1.15H4.4zm0-2.3h27.2c1.88 0 3.4 1.54 3.4 3.45v16.1c0 1.9-1.52 3.45-3.4 3.45H4.4A3.43 3.43 0 0 1 1 26.55v-16.1C1 8.55 2.52 7 4.4 7zm-1.13 6.9v2.3h29.46v-2.3H3.27zm23.8 11.2a2.28 2.28 0 0 1-3.4-2c0-1.27 1.01-2.3 2.26-2.3.42 0 .8.11 1.14.3a2.28 2.28 0 0 1 3.4 2c0 1.27-1.02 2.3-2.27 2.3-.41 0-.8-.11-1.13-.3zM35 11.6v6.9H1v-6.9h34zM6.67 24.25v-2.3H18v2.3H6.67z"
              id="a"/>
    </defs>
    <use fill="#002F5F" fill-rule="nonzero" xlink:href="#a"/>
</svg>