<svg xmlns="http://www.w3.org/2000/svg" width="36" height="36">
    <defs>
        <filter id="a" filterUnits="userSpaceOnUse" x="0" y="0" width="36" height="36">
            <feColorMatrix values="1 0 0 0 0 0 1 0 0 0 0 0 1 0 0 0 0 0 1 0"/>
        </filter>
    </defs>
    <mask maskUnits="userSpaceOnUse" x="0" y="0" width="36" height="36" id="b">
        <path d="M19.3 22.2l.8.3c.7.2 1.6-.1 1.9-.8l.4-.8c.5-1.1 1.4-2 2.5-2.5l.8-.4c.7-.3 1-1.2.8-1.9l-.3-.8c-.4-1.2-.4-2.4 0-3.5l.3-.8c.2-.8-.1-1.6-.8-1.9l-.7-.4a5.5 5.5 0 0 1-2.5-2.5l-.5-.8c-.3-.7-1.2-1-1.9-.8l-.8.3c-1.1.4-2.4.4-3.5 0l-.8-.3c-.7-.3-1.6.1-1.9.8l-.4.8c-.5 1.1-1.4 2-2.5 2.5l-.7.3c-.7.4-1 1.2-.8 1.9l.3.9c.4 1.2.4 2.4 0 3.5l-.3.8c-.2.8.1 1.6.8 1.9l.8.4c1.1.5 1.9 1.4 2.5 2.5l.4.8c.3.7 1.1 1 1.9.8l.8-.3c1-.3 2.3-.3 3.4 0zm-3.6 2.5c-1.8.6-3.7-.2-4.6-1.9l-.3-.8c-.3-.6-.8-1.2-1.5-1.5l-.8-.4c-1.7-.9-2.5-2.8-1.9-4.7l.3-.8c.2-.7.2-1.4 0-2.1l-.3-.8C6 9.9 6.8 7.9 8.5 7l.8-.4c.6-.3 1.2-.9 1.5-1.5l.4-.8c.8-1.7 2.8-2.5 4.6-1.9l.8.3c.7.2 1.4.2 2.1 0l.8-.3c1.8-.6 3.7.2 4.6 1.9l.4.8c.3.6.8 1.2 1.5 1.5l.6.4c1.7.9 2.5 2.8 1.9 4.7l-.3.8c-.2.7-.2 1.4 0 2.1l.3.8c.6 1.8-.2 3.8-1.9 4.7l-.7.4c-.6.3-1.2.9-1.5 1.5l-.4.7c-.8 1.7-2.8 2.5-4.6 1.9l-.8-.3c-.7-.2-1.4-.2-2.1 0l-.8.4zm2.3-.8l.5-.4.8 1.2 3.5 5.9 1.7-2.6 3-.1-4.2-6.9 1.9-1.2L31.5 30l-5.7.3-3.1 4.6-.9-1.5-3.8-6.5-4.7 8-3-4.6-5.8-.3 5.4-9.1 1.9 1.2L8.3 28l3.1.2 1.7 2.6 3.6-6 .8-1.1c0-.2.5.2.5.2zm-.4-3.6c-3.7 0-6.7-3.1-6.7-6.8 0-3.7 3-6.8 6.7-6.8s6.7 3 6.7 6.8-3 6.8-6.7 6.8zm0-2.2c2.5 0 4.5-2 4.5-4.5s-2-4.5-4.5-4.5-4.5 2-4.5 4.5c0 2.4 2 4.4 4.5 4.5z"
              fill="#fff" filter="url(#a)"/>
    </mask>
    <g mask="url(#b)">
        <path d="M0 0h36v36H0V0z" fill="#002f5f"/>
    </g>
</svg>