<svg width="292" height="146" xmlns="http://www.w3.org/2000/svg">
    <g fill="none" fill-rule="evenodd">
        <path d="M214 53.5h1.94c.86 0 1.56.67 1.56 1.5s-.7 1.5-1.56 1.5H214v1.94c0 .86-.67 1.56-1.5 1.56s-1.5-.7-1.5-1.56V56.5h-1.94c-.86 0-1.56-.67-1.56-1.5s.7-1.5 1.56-1.5H211v-1.94c0-.86.67-1.56 1.5-1.56s1.5.7 1.5 1.56v1.94zM258 121.5h1.94c.86 0 1.56.67 1.56 1.5s-.7 1.5-1.56 1.5H258v1.94c0 .86-.67 1.56-1.5 1.56s-1.5-.7-1.5-1.56v-1.94h-1.94c-.86 0-1.56-.67-1.56-1.5s.7-1.5 1.56-1.5H255v-1.94c0-.86.67-1.56 1.5-1.56s1.5.7 1.5 1.56v1.94zM66 27.5h1.94c.86 0 1.56.67 1.56 1.5s-.7 1.5-1.56 1.5H66v1.94c0 .86-.67 1.56-1.5 1.56s-1.5-.7-1.5-1.56V30.5h-1.94c-.86 0-1.56-.67-1.56-1.5s.7-1.5 1.56-1.5H63v-1.94c0-.86.67-1.56 1.5-1.56s1.5.7 1.5 1.56v1.94zM42 128.5h1.94c.86 0 1.56.67 1.56 1.5s-.7 1.5-1.56 1.5H42v1.94c0 .86-.67 1.56-1.5 1.56s-1.5-.7-1.5-1.56v-1.94h-1.94c-.86 0-1.56-.67-1.56-1.5s.7-1.5 1.56-1.5H39v-1.94c0-.86.67-1.56 1.5-1.56s1.5.7 1.5 1.56v1.94z"
              fill="#D6D6D6" fill-rule="nonzero"/>
        <circle fill="#B4B4B4" cx="289" cy="62" r="3"/>
        <circle fill="#B4B4B4" cx="186" cy="3" r="3"/>
        <circle fill="#B4B4B4" cx="3" cy="96" r="3"/>
        <path d="M193.26 138.95c0 .64-.16 1.25-.43 1.8l-.1-.16-25.04-25 24.78-19.75c.06-.05.1-.12.15-.17.4.63.64 1.38.64 2.18v41.1zm-71.23 4.1h-1.37c-.64 0-1.24-.15-1.78-.42l25.38-25.33 6.53 5.2a6.91 6.91 0 0 0 8.26-.02l6.48-5.17 25.26 25.22.15.1c-.54.26-1.14.42-1.79.42h-67.12zm-5.48-45.2c0-.79.23-1.52.62-2.14l24.93 19.87-25.15 25.11a4.06 4.06 0 0 1-.4-1.74v-41.1zm72.6-4.11c.45 0 .88.09 1.28.22l-33.06 26.35a4.13 4.13 0 0 1-4.9.03l-33.1-26.38c.41-.13.84-.22 1.29-.22h68.5zm0-2.74h-68.5a6.86 6.86 0 0 0-6.84 6.85v34.25h-8.22a1.37 1.37 0 1 0 0 2.74h8.22v2.74h-12.33a1.37 1.37 0 1 0 0 2.74h12.47a6.8 6.8 0 0 0 1.26 2.73H97.37a1.37 1.37 0 1 0 0 2.74h91.78a6.86 6.86 0 0 0 6.85-6.84v-41.1a6.86 6.86 0 0 0-6.85-6.85z"
              fill="#002F5F"/>
    </g>
</svg>