<?xml version="1.0" encoding="utf-8"?><svg id="Layer_1" xmlns="http://www.w3.org/2000/svg" viewBox="0 0 659.1 183.8"><path class="st0" d="M241.8 118.9c3.6-1.9 6.1-5.2 6.1-9.3 0-9.7-8.8-11.7-16.7-11.6h-21.7v46.2h22.2c10 0 18-3.4 18-14.4 0-5.2-3-9.5-7.9-10.9m-20.1-11.6h9.3c2.5 0 4.8 1.1 4.8 4.5 0 3.2-2.8 4.4-4.8 4.4h-9.3v-8.9zm9.6 27.3h-9.6V124h9.6c3.5 0 6.3 1.3 6.3 5.3.1 4-2.5 5.3-6.3 5.3M489.2 93c13.9 0 20-6.6 20-20V45.9h-11.9v27.8c0 5.9-2.2 9-8.1 9-5.9 0-8.1-3.1-8.1-9V45.9H469V73c0 13.4 6.2 20 20.2 20m-119.2.1c10.4 0 17.7-7.6 17.7-17.7s-7.3-17.9-17.7-17.9c-10.5 0-17.7 7.7-17.7 17.9 0 10.1 7.2 17.7 17.7 17.7m0-27c5.1 0 6.7 5.1 6.7 9.3 0 4.2-1.6 9.3-6.7 9.3s-6.6-5.1-6.6-9.3c0-4.2 1.5-9.3 6.6-9.3m208.5-17.7h-11v32.2c0 9.2 2.4 11.8 11.8 11.8 2.1 0 4-.2 6.1-.3V84c-1.1 0-1.9.2-2.9.2-2.4 0-3.9-.6-3.9-3.2V65.6h6.8v-7.2h-6.8v-10zM442.8 92.8c3.8 0 6.8-1.1 9.7-3.6l2.4 2.9h9.8l-7.2-8.2c2.1-2.2 3.5-5.2 3.7-8.3h-6.8c-.1 1.2-.6 2.3-1.2 3.3l-3.5-4.2c3.4-1.6 5.9-4.4 5.9-8.3 0-5.4-4.6-8.8-9.6-8.8s-9.7 3.4-9.7 8.6c0 2.6 1.3 4.7 2.9 6.5-4 1.9-7.6 5-7.6 9.8-.1 6.2 5.2 10.3 11.2 10.3m3.1-29.6c1.7 0 2.9 1.1 2.9 2.7 0 2.1-1.4 3.1-3.1 4.2-1-1.4-2.3-2.5-2.3-4.4 0-1.4 1.2-2.5 2.5-2.5m-2.7 14.7l5 6c-1.2 1.1-2.9 2.4-4.5 2.4-2.2 0-4.4-1.4-4.4-3.9 0-2 2.2-3.8 3.9-4.5m108.7-29.7v6.4h10.9v-6.4h-10.9zm-222.8 44V46h-11v46.2h11zm16.4.2c2 0 4-.3 6.1-.3V84c-1.1 0-2 .1-2.9.1-2.4 0-3.9-.6-3.9-3.2V65.6h6.8v-7h-6.8V48.4h-11v32.2c-.1 9.1 2.3 11.8 11.7 11.8m-43.4-16.9c0-4.2 2.9-8 8.3-8 1.4 0 2.7.3 4.1.7v-10c-.8-.2-1.7-.3-2.5-.3-4.7 0-8.5 2.4-10.1 6.6h-.1v-5.9h-10.6v33.6h11V75.5zm158.1 34.2c-10 0-18 7.4-18 17.6 0 11.2 7.4 17.9 18.3 17.9 7.5 0 14.7-3.4 16.7-11.1H467c-1.1 2.4-3.6 3.7-6.3 3.7-4.7 0-7.2-3-7.5-7.7h24.6c.5-11.4-5.5-20.4-17.6-20.4m-6.6 14.3c.7-4.2 3.2-6.9 7.1-6.9 3.7 0 6.3 3.1 6.5 6.9h-13.6zm150.6-66.5c-9.9 0-18.1 7.4-18.1 17.7 0 11.2 7.5 17.8 18.4 17.8 7.5 0 14.7-3.3 16.6-11h-10.3c-1 2.4-3.5 3.6-6.2 3.6-4.7 0-7.3-3-7.5-7.7h24.6c.5-11.4-5.5-20.4-17.5-20.4M597 71.8c.7-4.1 3.2-6.8 7.2-6.8 3.7 0 6.3 3 6.5 6.8H597zm-243.4 38.8l-5.5 21.7h-.1l-5-21.7h-10.4l-4.8 21.8h-.1l-5.7-21.8h-11l10.5 33.6h11.1l5.3-22.3h.1l5.3 22.3h11.1l10.5-33.6h-11.3zm150.2 13.6c-5-1.1-12.4-1.7-12.4-5 0-2.2 3-2.5 4.8-2.5 1.4 0 2.6.4 3.5.9.9.6 1.4 1.5 1.4 2.9h10.2c-.4-8.6-8.2-10.8-15.5-10.8-6.6 0-15.3 2.2-15.3 10.3 0 9 8.7 9.2 15.6 11 2 .5 5.3 1.1 5.3 3.6 0 2.6-3 3.5-5.1 3.5-1.6 0-3.1-.4-4.2-1.2-1.1-.9-1.7-2-1.7-3.7h-10.5c.3 9.5 8.5 12.1 16.4 12.1 7.5 0 16-3 16-11.9 0-3-1.7-7.9-8.5-9.2m-96.5-57.5c6 0 5.5 4.6 5.5 9.2v16.3h11V70.6c0-4.9-.9-13.1-12.1-13.1-4 0-8.5 2.3-10.6 5.6h-.1v-4.5h-10.8v33.6h11.1V73.8c.1-3.6 1.9-7.1 6-7.1m-25.8 43c-9.9 0-18.1 7.4-18.1 17.6 0 11.2 7.5 17.9 18.4 17.9 7.5 0 14.6-3.4 16.6-11.1h-10.2c-1.1 2.4-3.7 3.7-6.3 3.7-4.6 0-7.3-3-7.5-7.7H399c.6-11.4-5.4-20.4-17.5-20.4M375 124c.6-4.2 3.2-6.9 7.2-6.9 3.7 0 6.3 3.1 6.5 6.9H375zm37.5-7.5h-.1v-5.9h-10.7v33.6h11v-16.7c0-4.1 2.9-7.9 8.3-7.9 1.5 0 2.7.2 4.1.6v-10c-.7-.2-1.7-.3-2.5-.3-4.8.1-8.5 2.4-10.1 6.6m16.2-5.9v33.6h11v-33.6h-11zm0-10.3v6.4h11v-6.4h-11zM648 45.9v16.2c-2.2-3.1-5.4-4.6-9.5-4.6-9.5 0-14.2 8.3-14.2 17.1 0 9.4 4.5 18.4 15 18.4 3.9 0 7.2-1.6 9.3-4.8h.1v3.9h10.5V45.9H648zm-6.1 38.7c-5 0-6.7-5.1-6.7-9.6 0-4.3 1.7-9 6.7-9 4.8 0 6.5 4.5 6.5 9.3.1 4.2-1.1 9.3-6.5 9.3m-90-26.1v33.6h10.9V58.5h-10.9zM231 55.3c5 0 8.5 2.5 9.1 7.2h12.1c-.2-11.2-11.1-17.5-21-17.5-13.9 0-23.1 10.6-23.1 24s9.1 24.1 23.1 24.1c11.7 0 20.5-7 21.1-18.9h-12.1c-.4 5.3-3.6 8.5-9.1 8.5-7.8 0-10.8-6.8-10.8-13.8-.1-6.7 2.9-13.6 10.7-13.6m56.8 36.9c-1.2-2.7-1.2-5.8-1.2-8.6V68.8c0-9.5-7.7-11.3-15.7-11.3-3.8 0-7.6.7-10.6 2.4s-5 4.5-5.2 9h10.3c.6-2.9 2.5-4.2 5.5-4.2 2.3 0 5.4.9 5.4 3.5 0 2.1-1 2.7-2.9 3.1-7.7 1.6-19.5.7-19.5 11.7 0 6.8 5 10.1 11.4 10.1 3.9 0 8.2-1.1 11-4.2.2 1.1.2 2.2.6 3.3h10.9zm-18.6-6c-2.5 0-4.6-1.1-4.6-3.7 0-2.7 2-3.7 4.5-4.4 2.4-.6 5.4-.7 6.8-1.7.3 6.9-1.4 9.8-6.7 9.8m-5.9 30.3l-.1-5.9h-10.8v33.6h11.1v-16.7c0-4.1 2.8-7.9 8.1-7.9 1.6 0 2.9.2 4.3.6v-10c-.9-.2-1.8-.3-2.5-.3-4.7.1-8.4 2.4-10.1 6.6m271.8-59c-3.9 0-8.5 2.2-10.6 5.6h-.1v-4.7h-10.6V92h11V73.8c0-3.6 1.9-7.2 6-7.2 6 0 5.5 4.7 5.5 9.3v16.2h11.1V70.6c-.1-4.9-1.1-13.1-12.3-13.1m-240.2 52.2c-9.9 0-18.2 7.4-18.2 17.6 0 11.2 7.5 17.9 18.4 17.9 7.5 0 14.7-3.4 16.6-11.1h-10.3c-1 2.4-3.6 3.7-6.2 3.7-4.7 0-7.3-3-7.5-7.7h24.6c.5-11.4-5.3-20.4-17.4-20.4m-7.1 14.3c.7-4.2 3.2-6.9 7.2-6.9 3.6 0 6.3 3.1 6.5 6.9h-13.7zM98.3 39.8v2.4c4.1.7 4.9.9 5.1 3.7v65c-.1 2.9-.9 3.1-5.1 3.8v2.4h27v15.5c0 14.8-6.2 21.3-20 21.3-15.1 0-21.5-7.9-21.5-26.5v-12.7c6.8-4.3 11.5-10.6 14.1-18.6l-5.4-2.5c-3.3 10.4-15.2 18-24.3 18-14.6 0-22.7-10.8-22.7-32.4 0-21.7 7.4-33.2 20.2-33.2 10.3 0 18.2 5.5 23.8 20.9h3.8v-27h-3.1c-.3 1.3-1.8 2.3-3.1 2.3s-2.3-.1-4.5-1.1c-6.8-3-14.1-4.6-21.7-4.6-21.5 0-37.8 17.6-37.8 41.7 0 25.1 16.8 42.3 38.8 42.3 1.5 0 3-.1 4.4-.2v11.9c.2 8.2 1.4 14.2 5.7 19.6 5.4 7 15.5 11.1 29.1 11.1 12.2 0 21.5-4.2 26.4-11.3 4.4-6.3 4.6-13.3 4.6-21.6V86.3h-6.8V110c-4-.4-4.5-1.9-4.5-5.9V81.8h7.8c11.1 0 17.3 4.5 17.3 14.5 0 7.8-3.5 12-11.1 13.3v7.4c22.8-.2 32.1-7.9 32.1-19.7 0-11.7-5.7-18-18.8-20.5 10.9-2.5 15.5-8 15.5-18.2 0-12.4-11.6-18.8-34.4-18.8H98.3zm45.3 20.5c0 10.9-4 14.5-15.8 14.5h-7.1V52.5c0-4.9.6-6 7-6 12.2 0 15.9 3.2 15.9 13.8m-75.4 48.5c4.9 0 10.9-2.7 15.6-6.9v-9.7c.1-2.8.9-3 5.1-3.7v-2.4H61.2v2.4c4.1.7 4.9.9 5.1 3.7v16.5c.6.1 1.2.1 1.9.1M96.5 0h-1.9C38.9 0 0 21.7 0 89v5.7c0 67.4 38.9 89.1 94.6 89h1.9c55.7.1 94.6-21.7 94.6-89V89c.1-67.3-38.8-89-94.6-89m79.3 94.8c0 58.5-36 82.7-79.3 82.7h-1.9c-43.3 0-79.3-24.1-79.3-82.7V89c0-58.6 36-82.7 79.3-82.7h1.9c43.3 0 79.3 24.1 79.3 82.7v5.8z"/></svg>