<svg id="Icon-in-transit" xmlns="http://www.w3.org/2000/svg" viewBox="0 0 70 70"><defs><style>.cls-1{fill:#002f5f;}.cls-2{fill:none;stroke:#fff;stroke-miterlimit:10;stroke-width:1.79px;}.cls-3,.cls-4{fill:#fff;}.cls-3{fill-rule:evenodd;}</style></defs><title>Artboard 1 copy</title><circle class="cls-1" cx="35" cy="35" r="35"/><ellipse class="cls-2" cx="25.56" cy="45.47" rx="3.02" ry="3.16"/><ellipse class="cls-2" cx="46.7" cy="45.47" rx="3.02" ry="3.16"/><path class="cls-3" d="M49.61,31.79a.89.89,0,0,0-.89.89v3.48a.89.89,0,0,0,.89.89h5.08a.44.44,0,0,0,.16,0,.89.89,0,0,0,.71-1l-.66-3.48a.89.89,0,0,0-.88-.72Zm4.07,13.68a7.16,7.16,0,0,0-7-6.31,6.63,6.63,0,0,0-1,.07V32.36a2.68,2.68,0,0,1,2.68-2.68h5.3a2.68,2.68,0,0,1,2.6,2l2.66,10.44A2.67,2.67,0,0,1,57,45.39a2.48,2.48,0,0,1-.66.08Z"/><path class="cls-3" d="M40.37,43.7H31.92a6.9,6.9,0,0,0-12.81,0h-.33a3.4,3.4,0,0,1-3.39-3.4v-16a3.4,3.4,0,0,1,3.39-3.4H40.35a3.4,3.4,0,0,1,3.39,3.4V40.09A7.41,7.41,0,0,0,40.37,43.7Z"/><rect class="cls-4" x="4" y="27.75" width="9" height="2.5"/><rect class="cls-4" x="6" y="36.75" width="7" height="2.5"/><path class="cls-4" d="M0,34.75H13v-2.5H.12C.05,33.08,0,33.91,0,34.75Z"/></svg>