<svg id="Layer_1" data-name="Layer 1" xmlns="http://www.w3.org/2000/svg" viewBox="0 0 70 70"><defs><style>.cls-1{fill:#002f5f;}.cls-2{fill:#fff;}.cls-3{fill:none;stroke:#fff;stroke-miterlimit:10;stroke-width:1.54px;}</style></defs><title>Artboard 1 copy</title><circle class="cls-1" cx="35" cy="35" r="35"/><path class="cls-2" d="M35,46.32A5.9,5.9,0,0,0,30,43.74L21.46,16.67,14.32,16,14,19.7l4.8.47,7.85,24.76a6.32,6.32,0,0,0-2,7.53A5.89,5.89,0,0,0,31.41,56a6.11,6.11,0,0,0,4.65-6.12L52,44.38l-1.12-3.52Z"/><circle class="cls-1" cx="30" cy="50" r="2.5"/><rect class="cls-3" x="31.46" y="33.72" width="16.76" height="6.27" transform="translate(-9.44 14.12) rotate(-18)"/><rect class="cls-2" x="37.49" y="35.99" width="4.7" height="1.73" transform="translate(-9.18 13.56) rotate(-17.36)"/><rect class="cls-3" x="28.46" y="24.72" width="16.76" height="6.27" transform="translate(-6.81 12.75) rotate(-18)"/><rect class="cls-2" x="34.49" y="26.99" width="4.7" height="1.73" transform="translate(-6.63 12.26) rotate(-17.36)"/></svg>