<svg xmlns="http://www.w3.org/2000/svg" viewBox="0 0 59.02 28.58"><defs><style>.cls-1{fill:none;stroke:#000;stroke-miterlimit:10;stroke-width:1.79px;}.cls-2{fill-rule:evenodd;}</style></defs><title>Asset 4</title><g id="Layer_2" data-name="Layer 2"><g id="Icon-delivered"><ellipse class="cls-1" cx="25.56" cy="24.53" rx="3.02" ry="3.16"/><ellipse class="cls-1" cx="46.7" cy="24.53" rx="3.02" ry="3.16"/><path class="cls-2" d="M49.61,10.84a.89.89,0,0,0-.89.9v3.48a.89.89,0,0,0,.89.89h5.08l.16,0a.89.89,0,0,0,.71-1l-.66-3.48a.9.9,0,0,0-.88-.73Zm4.07,13.69a7.17,7.17,0,0,0-7-6.32,6.63,6.63,0,0,0-1,.08V11.42a2.68,2.68,0,0,1,2.68-2.68h5.3a2.68,2.68,0,0,1,2.6,2l2.66,10.44A2.68,2.68,0,0,1,57,24.45a3,3,0,0,1-.66.08Z"/><path class="cls-2" d="M40.37,22.75H31.92a6.9,6.9,0,0,0-12.81,0h-.33a3.39,3.39,0,0,1-3.39-3.39V3.4A3.4,3.4,0,0,1,18.78,0H40.35a3.4,3.4,0,0,1,3.39,3.4V19.15A7.43,7.43,0,0,0,40.37,22.75Z"/><rect x="4" y="6.81" width="9" height="2.5"/><rect x="6" y="15.81" width="7" height="2.5"/><rect y="11.31" width="13" height="2.5"/></g></g></svg>