<svg xmlns="http://www.w3.org/2000/svg" viewBox="0 0 43.53 28.27"><defs><style>.cls-1{fill:none;stroke:#000;stroke-miterlimit:10;stroke-width:1.79px;}.cls-2{fill-rule:evenodd;}</style></defs><title>Asset 3</title><g id="Layer_2" data-name="Layer 2"><g id="Icon-delivered"><ellipse class="cls-1" cx="10.07" cy="24.22" rx="3.02" ry="3.16"/><path class="cls-2" d="M0,13.18H13.34v3l5.79-5.9L13.34,4.36v3H0V3.57A3.57,3.57,0,0,1,3.57,0H24.62a3.57,3.57,0,0,1,3.57,3.57v15a7.26,7.26,0,0,0-3.35,3.5h-8.4a7,7,0,0,0-6.37-4.21A7,7,0,0,0,3.7,22.11H3.57A3.57,3.57,0,0,1,0,18.54Z"/><ellipse class="cls-1" cx="31.21" cy="24.22" rx="3.02" ry="3.16"/><path class="cls-2" d="M34.11,10.53a.89.89,0,0,0-.89.89V14.9a.89.89,0,0,0,.89.9h5.08l.17,0a.89.89,0,0,0,.71-1l-.67-3.48a.89.89,0,0,0-.88-.73Zm4.07,13.69a7.15,7.15,0,0,0-7-6.32,6.77,6.77,0,0,0-1,.08V11.1a2.68,2.68,0,0,1,2.68-2.68h5.31a2.67,2.67,0,0,1,2.59,2l2.66,10.44a2.68,2.68,0,0,1-1.93,3.26,3,3,0,0,1-.66.08Z"/></g></g></svg>