<svg xmlns="http://www.w3.org/2000/svg" viewBox="0 0 37.89 40"><defs><style>.cls-1{fill:none;stroke:#000;stroke-miterlimit:10;stroke-width:1.54px;}</style></defs><title>Asset 2</title><g id="Layer_2" data-name="Layer 2"><g id="Icon-delivered"><path d="M36.78,24.79,20.89,30.23A5.85,5.85,0,0,0,16,27.67L7.44.67.32,0,0,3.69l4.79.46,7.82,24.7a6.3,6.3,0,0,0-1.95,7.51,5.87,5.87,0,0,0,6.7,3.49A6.1,6.1,0,0,0,22,33.74L37.89,28.3ZM16,36.4a2.5,2.5,0,1,1,2.49-2.49A2.5,2.5,0,0,1,16,36.4Z"/><rect class="cls-1" x="17.42" y="17.68" width="16.71" height="6.25" transform="translate(-5.17 8.98) rotate(-18)"/><rect x="23.43" y="19.94" width="4.68" height="1.72" transform="translate(-5.03 8.64) rotate(-17.36)"/><rect class="cls-1" x="14.42" y="8.7" width="16.71" height="6.25" transform="translate(-2.54 7.62) rotate(-18)"/><rect x="20.44" y="10.96" width="4.68" height="1.72" transform="translate(-2.49 7.33) rotate(-17.36)"/></g></g></svg>