<svg id="Icon-delivered" xmlns="http://www.w3.org/2000/svg" viewBox="0 0 70 70"><defs><style>.cls-1{fill:#e8e8e8;}.cls-2{fill:none;stroke:#b6b6b6;stroke-miterlimit:10;stroke-width:1.79px;}.cls-3{fill:#b6b6b6;fill-rule:evenodd;}</style></defs><title>Artboard 3 copy 7</title><circle class="cls-1" cx="35" cy="35" r="35"/><ellipse class="cls-2" cx="24.56" cy="45.47" rx="3.02" ry="3.16"/><path class="cls-3" d="M14.5,34.44H27.83v3l5.79-5.89-5.79-5.9v3H14.5V24.83a3.56,3.56,0,0,1,3.57-3.57h21a3.56,3.56,0,0,1,3.57,3.57v15a7.22,7.22,0,0,0-3.34,3.49H30.93a6.92,6.92,0,0,0-12.74,0h-.12A3.57,3.57,0,0,1,14.5,39.8Z"/><ellipse class="cls-2" cx="45.7" cy="45.47" rx="3.02" ry="3.16"/><path class="cls-3" d="M48.61,31.79a.89.89,0,0,0-.89.89v3.48a.89.89,0,0,0,.89.89h5.08a.44.44,0,0,0,.16,0,.89.89,0,0,0,.71-1l-.66-3.48a.89.89,0,0,0-.88-.72Zm4.07,13.68a7.16,7.16,0,0,0-7-6.31,6.63,6.63,0,0,0-1,.07V32.36a2.68,2.68,0,0,1,2.68-2.68h5.3a2.68,2.68,0,0,1,2.6,2l2.66,10.44A2.67,2.67,0,0,1,56,45.39a2.48,2.48,0,0,1-.66.08Z"/></svg>