<?xml version="1.0" encoding="UTF-8"?>
<svg fill="#42515A" width="100pt" height="100pt" version="1.1" viewBox="0 0 100 100" xmlns="http://www.w3.org/2000/svg">
 <path d="m80.199 22.602h-60.398c-5.3984 0-9.8008 4.3984-9.8008 9.8008v35.301c0 5.3984 4.3984 9.8008 9.8008 9.8008h60.5c5.3984 0 9.8008-4.3984 9.8008-9.8008v-35.305c-0.10156-5.3984-4.5-9.7969-9.9023-9.7969zm-60.398 7.2969h60.5c1.1016 0 2.1016 0.80078 2.3984 1.8008l-31.398 19.699c-0.80078 0.5-1.8008 0.5-2.6016 0l-31.301-19.598c0.30078-1.1016 1.2031-1.9023 2.4023-1.9023zm60.398 40.203h-60.398c-1.3008 0-2.3984-1.1016-2.3984-2.3984l-0.003906-27.402 27.5 17.199c1.6016 1 3.3984 1.5 5.1992 1.5 1.8008 0 3.6016-0.5 5.1992-1.5l27.5-17.199v27.301c-0.097656 1.3984-1.1953 2.5-2.5977 2.5z"/>
</svg>
