<?xml version="1.0" encoding="UTF-8"?>
<svg fill="#42515A" width="100pt" height="100pt" version="1.1" viewBox="0 0 100 100" xmlns="http://www.w3.org/2000/svg">
 <path d="m50 7c-12.691 0-23 10.309-23 23v11h-5c-3.8242 0-7 3.1758-7 7v38c0 3.8242 3.1758 7 7 7h56c3.8242 0 7-3.1758 7-7v-38c0-3.8242-3.1758-7-7-7h-5v-11c0-12.691-10.309-23-23-23zm0 6c9.4688 0 17 7.5312 17 17v11h-34v-11c0-9.4688 7.5312-17 17-17zm-28 34h56c0.60547 0 1 0.39453 1 1v38c0 0.60547-0.39453 1-1 1h-56c-0.60547 0-1-0.39453-1-1v-38c0-0.60547 0.39453-1 1-1zm28 6c-4.9336 0-9 4.0664-9 9 0 2.0469 0.83594 3.8242 2 5.3438v6.6562c0 3.8242 3.1758 7 7 7s7-3.1758 7-7v-6.6562c1.1641-1.5195 2-3.2969 2-5.3438 0-4.9336-4.0664-9-9-9zm0 6c1.6914 0 3 1.3086 3 3 0 0.90625-0.37891 1.6641-1 2.2188-0.62891 0.5625-1.0039 1.4062-1 2.25v7.5312c0 0.60547-0.39453 1-1 1s-1-0.39453-1-1v-7.5312c0-0.84375-0.37109-1.6875-1-2.25-0.62109-0.55469-1-1.3125-1-2.2188 0-1.6914 1.3086-3 3-3z"/>
</svg>
